  0
SECTION
  2
HEADER
  9
$ACADVER
  1
AC1027
  9
$ACADMAINTVER
 70
   105
  9
$DWGCODEPAGE
  3
ANSI_1252
  9
$REQUIREDVERSIONS
160
                 0
  9
$LASTSAVEDBY
  1
wleferrand
  9
$INSBASE
 10
0.0
 20
0.0
 30
0.0
  9
$EXTMIN
 10
0.0000000173217956
 20
-0.0000000139075915
 30
-0.00000000029872
  9
$EXTMAX
 10
57.27052501172249
 20
12.61999742760747
 30
0.0000000002912046
  9
$LIMMIN
 10
0.0
 20
0.0
  9
$LIMMAX
 10
12.0
 20
9.0
  9
$ORTHOMODE
 70
     0
  9
$REGENMODE
 70
     1
  9
$FILLMODE
 70
     1
  9
$QTEXTMODE
 70
     0
  9
$MIRRTEXT
 70
     1
  9
$LTSCALE
 40
1.0
  9
$ATTMODE
 70
     1
  9
$TEXTSIZE
 40
0.2
  9
$TRACEWID
 40
0.05
  9
$TEXTSTYLE
  7
STANDARD
  9
$CLAYER
  8
0
  9
$CELTYPE
  6
ByLayer
  9
$CECOLOR
 62
   256
  9
$CELTSCALE
 40
1.0
  9
$DISPSILH
 70
     0
  9
$DIMSCALE
 40
1.0
  9
$DIMASZ
 40
0.18
  9
$DIMEXO
 40
0.0625
  9
$DIMDLI
 40
0.38
  9
$DIMRND
 40
0.0
  9
$DIMDLE
 40
0.0
  9
$DIMEXE
 40
0.18
  9
$DIMTP
 40
0.0
  9
$DIMTM
 40
0.0
  9
$DIMTXT
 40
0.18
  9
$DIMCEN
 40
0.09
  9
$DIMTSZ
 40
0.0
  9
$DIMTOL
 70
     0
  9
$DIMLIM
 70
     0
  9
$DIMTIH
 70
     1
  9
$DIMTOH
 70
     1
  9
$DIMSE1
 70
     0
  9
$DIMSE2
 70
     0
  9
$DIMTAD
 70
     0
  9
$DIMZIN
 70
     0
  9
$DIMBLK
  1

  9
$DIMASO
 70
     1
  9
$DIMSHO
 70
     1
  9
$DIMPOST
  1

  9
$DIMAPOST
  1

  9
$DIMALT
 70
     0
  9
$DIMALTD
 70
     2
  9
$DIMALTF
 40
25.4
  9
$DIMLFAC
 40
1.0
  9
$DIMTOFL
 70
     0
  9
$DIMTVP
 40
0.0
  9
$DIMTIX
 70
     0
  9
$DIMSOXD
 70
     0
  9
$DIMSAH
 70
     0
  9
$DIMBLK1
  1

  9
$DIMBLK2
  1

  9
$DIMSTYLE
  2
STANDARD
  9
$DIMCLRD
 70
     0
  9
$DIMCLRE
 70
     0
  9
$DIMCLRT
 70
     0
  9
$DIMTFAC
 40
1.0
  9
$DIMGAP
 40
0.09
  9
$DIMJUST
 70
     0
  9
$DIMSD1
 70
     0
  9
$DIMSD2
 70
     0
  9
$DIMTOLJ
 70
     1
  9
$DIMTZIN
 70
     0
  9
$DIMALTZ
 70
     0
  9
$DIMALTTZ
 70
     0
  9
$DIMUPT
 70
     0
  9
$DIMDEC
 70
     4
  9
$DIMTDEC
 70
     4
  9
$DIMALTU
 70
     2
  9
$DIMALTTD
 70
     2
  9
$DIMTXSTY
  7
STANDARD
  9
$DIMAUNIT
 70
     0
  9
$DIMADEC
 70
     0
  9
$DIMALTRND
 40
0.0
  9
$DIMAZIN
 70
     0
  9
$DIMDSEP
 70
    46
  9
$DIMATFIT
 70
     3
  9
$DIMFRAC
 70
     0
  9
$DIMLDRBLK
  1

  9
$DIMLUNIT
 70
     2
  9
$DIMLWD
 70
    -2
  9
$DIMLWE
 70
    -2
  9
$DIMTMOVE
 70
     2
  9
$DIMFXL
 40
1.0
  9
$DIMFXLON
 70
     0
  9
$DIMJOGANG
 40
0.7853981633974483
  9
$DIMTFILL
 70
     0
  9
$DIMTFILLCLR
 70
     0
  9
$DIMARCSYM
 70
     0
  9
$DIMLTYPE
  6

  9
$DIMLTEX1
  6

  9
$DIMLTEX2
  6

  9
$DIMTXTDIRECTION
 70
     0
  9
$LUNITS
 70
     2
  9
$LUPREC
 70
     4
  9
$SKETCHINC
 40
0.1
  9
$FILLETRAD
 40
0.5
  9
$AUNITS
 70
     0
  9
$AUPREC
 70
     0
  9
$MENU
  1
.
  9
$ELEVATION
 40
0.0
  9
$PELEVATION
 40
0.0
  9
$THICKNESS
 40
0.0
  9
$LIMCHECK
 70
     0
  9
$CHAMFERA
 40
0.5
  9
$CHAMFERB
 40
0.5
  9
$CHAMFERC
 40
0.0
  9
$CHAMFERD
 40
0.0
  9
$SKPOLY
 70
     0
  9
$TDCREATE
 40
2451685.856865208
  9
$TDUCREATE
 40
2451685.815198542
  9
$TDUPDATE
 40
2458025.694554109
  9
$TDUUPDATE
 40
2458025.652887442
  9
$TDINDWG
 40
0.0099984606
  9
$TDUSRTIMER
 40
2458025.651633866
  9
$USRTIMER
 70
     1
  9
$ANGBASE
 50
0.0
  9
$ANGDIR
 70
     0
  9
$PDMODE
 70
     0
  9
$PDSIZE
 40
0.0
  9
$PLINEWID
 40
0.0
  9
$SPLFRAME
 70
     0
  9
$SPLINETYPE
 70
     6
  9
$SPLINESEGS
 70
     8
  9
$HANDSEED
  5
5BD
  9
$SURFTAB1
 70
     6
  9
$SURFTAB2
 70
     6
  9
$SURFTYPE
 70
     6
  9
$SURFU
 70
     6
  9
$SURFV
 70
     6
  9
$UCSBASE
  2

  9
$UCSNAME
  2

  9
$UCSORG
 10
0.0
 20
0.0
 30
0.0
  9
$UCSXDIR
 10
1.0
 20
0.0
 30
0.0
  9
$UCSYDIR
 10
0.0
 20
1.0
 30
0.0
  9
$UCSORTHOREF
  2

  9
$UCSORTHOVIEW
 70
     0
  9
$UCSORGTOP
 10
0.0
 20
0.0
 30
0.0
  9
$UCSORGBOTTOM
 10
0.0
 20
0.0
 30
0.0
  9
$UCSORGLEFT
 10
0.0
 20
0.0
 30
0.0
  9
$UCSORGRIGHT
 10
0.0
 20
0.0
 30
0.0
  9
$UCSORGFRONT
 10
0.0
 20
0.0
 30
0.0
  9
$UCSORGBACK
 10
0.0
 20
0.0
 30
0.0
  9
$PUCSBASE
  2

  9
$PUCSNAME
  2

  9
$PUCSORG
 10
0.0
 20
0.0
 30
0.0
  9
$PUCSXDIR
 10
1.0
 20
0.0
 30
0.0
  9
$PUCSYDIR
 10
0.0
 20
1.0
 30
0.0
  9
$PUCSORTHOREF
  2

  9
$PUCSORTHOVIEW
 70
     0
  9
$PUCSORGTOP
 10
0.0
 20
0.0
 30
0.0
  9
$PUCSORGBOTTOM
 10
0.0
 20
0.0
 30
0.0
  9
$PUCSORGLEFT
 10
0.0
 20
0.0
 30
0.0
  9
$PUCSORGRIGHT
 10
0.0
 20
0.0
 30
0.0
  9
$PUCSORGFRONT
 10
0.0
 20
0.0
 30
0.0
  9
$PUCSORGBACK
 10
0.0
 20
0.0
 30
0.0
  9
$USERI1
 70
     0
  9
$USERI2
 70
     0
  9
$USERI3
 70
     0
  9
$USERI4
 70
     0
  9
$USERI5
 70
     0
  9
$USERR1
 40
0.0
  9
$USERR2
 40
0.0
  9
$USERR3
 40
0.0
  9
$USERR4
 40
0.0
  9
$USERR5
 40
0.0
  9
$WORLDVIEW
 70
     1
  9
$SHADEDGE
 70
     3
  9
$SHADEDIF
 70
    70
  9
$TILEMODE
 70
     1
  9
$MAXACTVP
 70
    64
  9
$PINSBASE
 10
0.0
 20
0.0
 30
0.0
  9
$PLIMCHECK
 70
     0
  9
$PEXTMIN
 10
1.000000000000000E+20
 20
1.000000000000000E+20
 30
1.000000000000000E+20
  9
$PEXTMAX
 10
-1.000000000000000E+20
 20
-1.000000000000000E+20
 30
-1.000000000000000E+20
  9
$PLIMMIN
 10
0.0
 20
0.0
  9
$PLIMMAX
 10
0.0
 20
0.0
  9
$UNITMODE
 70
     0
  9
$VISRETAIN
 70
     1
  9
$PLINEGEN
 70
     0
  9
$PSLTSCALE
 70
     1
  9
$TREEDEPTH
 70
  3020
  9
$CMLSTYLE
  2
Standard
  9
$CMLJUST
 70
     0
  9
$CMLSCALE
 40
1.0
  9
$PROXYGRAPHICS
 70
     1
  9
$MEASUREMENT
 70
     0
  9
$CELWEIGHT
370
    -1
  9
$ENDCAPS
280
     0
  9
$JOINSTYLE
280
     0
  9
$LWDISPLAY
290
     0
  9
$INSUNITS
 70
     0
  9
$HYPERLINKBASE
  1

  9
$STYLESHEET
  1

  9
$XEDIT
290
     1
  9
$CEPSNTYPE
380
     0
  9
$PSTYLEMODE
290
     1
  9
$FINGERPRINTGUID
  2
{230EA9FD-3F4F-478F-9F70-90330544FF17}
  9
$VERSIONGUID
  2
{FAEB1C32-E019-11D5-929B-00C0DF256EC4}
  9
$EXTNAMES
290
     1
  9
$PSVPSCALE
 40
0.0
  9
$OLESTARTUP
290
     0
  9
$SORTENTS
280
   127
  9
$INDEXCTL
280
     0
  9
$HIDETEXT
280
     1
  9
$XCLIPFRAME
280
     2
  9
$HALOGAP
280
     0
  9
$OBSCOLOR
 70
   257
  9
$OBSLTYPE
280
     0
  9
$INTERSECTIONDISPLAY
280
     0
  9
$INTERSECTIONCOLOR
 70
   257
  9
$DIMASSOC
280
     2
  9
$PROJECTNAME
  1

  9
$CAMERADISPLAY
290
     0
  9
$LENSLENGTH
 40
50.0
  9
$CAMERAHEIGHT
 40
0.0
  9
$STEPSPERSEC
 40
2.0
  9
$STEPSIZE
 40
6.0
  9
$3DDWFPREC
 40
2.0
  9
$PSOLWIDTH
 40
0.25
  9
$PSOLHEIGHT
 40
4.0
  9
$LOFTANG1
 40
1.570796326794897
  9
$LOFTANG2
 40
1.570796326794897
  9
$LOFTMAG1
 40
0.0
  9
$LOFTMAG2
 40
0.0
  9
$LOFTPARAM
 70
     7
  9
$LOFTNORMALS
280
     1
  9
$LATITUDE
 40
37.795
  9
$LONGITUDE
 40
-122.394
  9
$NORTHDIRECTION
 40
0.0
  9
$TIMEZONE
 70
 -8000
  9
$LIGHTGLYPHDISPLAY
280
     1
  9
$TILEMODELIGHTSYNCH
280
     1
  9
$SOLIDHIST
280
     0
  9
$SHOWHIST
280
     1
  9
$DWFFRAME
280
     2
  9
$DGNFRAME
280
     2
  9
$REALWORLDSCALE
290
     1
  9
$INTERFERECOLOR
 62
   256
  9
$CSHADOW
280
     0
  9
$SHADOWPLANELOCATION
 40
0.0
  0
ENDSEC
  0
SECTION
  2
CLASSES
  0
CLASS
  1
ACDBDICTIONARYWDFLT
  2
AcDbDictionaryWithDefault
  3
ObjectDBX Classes
 90
        0
 91
       12
280
     0
281
     0
  0
CLASS
  1
MATERIAL
  2
AcDbMaterial
  3
ObjectDBX Classes
 90
     1153
 91
       12
280
     0
281
     0
  0
CLASS
  1
SCALE
  2
AcDbScale
  3
ObjectDBX Classes
 90
     1153
 91
       12
280
     0
281
     0
  0
CLASS
  1
VISUALSTYLE
  2
AcDbVisualStyle
  3
ObjectDBX Classes
 90
     4095
 91
       12
280
     0
281
     0
  0
CLASS
  1
TABLESTYLE
  2
AcDbTableStyle
  3
ObjectDBX Classes
 90
     4095
 91
       12
280
     0
281
     0
  0
CLASS
  1
MLEADERSTYLE
  2
AcDbMLeaderStyle
  3
ACDB_MLEADERSTYLE_CLASS
 90
     4095
 91
       12
280
     0
281
     0
  0
CLASS
  1
SUN
  2
AcDbSun
  3
SCENEOE
 90
     1153
 91
       12
280
     0
281
     0
  0
CLASS
  1
RASTERVARIABLES
  2
AcDbRasterVariables
  3
ISM
 90
        0
 91
       12
280
     0
281
     0
  0
CLASS
  1
DICTIONARYVAR
  2
AcDbDictionaryVar
  3
ObjectDBX Classes
 90
        0
 91
       12
280
     0
281
     0
  0
CLASS
  1
CELLSTYLEMAP
  2
AcDbCellStyleMap
  3
ObjectDBX Classes
 90
     1152
 91
       12
280
     0
281
     0
  0
ENDSEC
  0
SECTION
  2
TABLES
  0
TABLE
  2
VPORT
  5
541
330
0
100
AcDbSymbolTable
 70
     1
  0
VPORT
  5
558
330
541
100
AcDbSymbolTableRecord
100
AcDbViewportTableRecord
  2
*ACTIVE
 70
     0
 10
0.0
 20
0.0
 11
1.0
 21
1.0
 12
18.56829330720237
 22
1.351785544339755
 13
0.0
 23
0.0
 14
0.5
 24
0.5
 15
0.5
 25
0.5
 16
0.0
 26
0.0
 36
1.0
 17
0.0
 27
0.0
 37
0.0
 40
71.42712599181276
 41
1.522842639593909
 42
50.0
 43
0.0
 44
0.0
 50
0.0
 51
0.0
 71
    16
 72
   100
 73
     1
 74
     3
 75
     0
 76
     0
 77
     0
 78
     0
281
     0
 65
     0
110
0.0
120
0.0
130
0.0
111
1.0
121
0.0
131
0.0
112
0.0
122
1.0
132
0.0
 79
     0
146
0.0
348
598
 60
     3
 61
     5
292
     1
282
     1
141
0.0
142
0.0
 63
   256
361
5B1
  0
ENDTAB
  0
TABLE
  2
LTYPE
  5
53E
330
0
100
AcDbSymbolTable
 70
     1
  0
LTYPE
  5
54C
330
53E
100
AcDbSymbolTableRecord
100
AcDbLinetypeTableRecord
  2
ByBlock
 70
     0
  3

 72
    65
 73
     0
 40
0.0
  0
LTYPE
  5
54D
330
53E
100
AcDbSymbolTableRecord
100
AcDbLinetypeTableRecord
  2
ByLayer
 70
     0
  3

 72
    65
 73
     0
 40
0.0
  0
LTYPE
  5
54E
330
53E
100
AcDbSymbolTableRecord
100
AcDbLinetypeTableRecord
  2
CONTINUOUS
 70
     0
  3
Solid line
 72
    65
 73
     0
 40
0.0
  0
ENDTAB
  0
TABLE
  2
LAYER
  5
53B
330
0
100
AcDbSymbolTable
 70
     1
  0
LAYER
  5
549
330
53B
100
AcDbSymbolTableRecord
100
AcDbLayerTableRecord
  2
0
 70
     0
 62
     7
  6
CONTINUOUS
370
    -3
390
548
347
55E
348
0
  0
ENDTAB
  0
TABLE
  2
STYLE
  5
53C
330
0
100
AcDbSymbolTable
 70
     3
  0
STYLE
  5
54A
330
53C
100
AcDbSymbolTableRecord
100
AcDbTextStyleTableRecord
  2
STANDARD
 70
     0
 40
0.0
 41
1.0
 50
0.0
 71
     0
 42
0.2
  3
txt
  4

  0
STYLE
  5
560
330
53C
100
AcDbSymbolTableRecord
100
AcDbTextStyleTableRecord
  2
ANNOTATIVE
 70
     0
 40
0.0
 41
1.0
 50
0.0
 71
     0
 42
0.2
  3
txt
  4

  0
STYLE
  5
561
330
53C
100
AcDbSymbolTableRecord
100
AcDbTextStyleTableRecord
  2
SLDTEXTSTYLE1
 70
     0
 40
0.0
 41
0.948
 50
0.0
 71
     0
 42
0.2
  3
txt
  4

  0
ENDTAB
  0
TABLE
  2
VIEW
  5
53F
330
0
100
AcDbSymbolTable
 70
     0
  0
ENDTAB
  0
TABLE
  2
UCS
  5
540
330
0
100
AcDbSymbolTable
 70
     0
  0
ENDTAB
  0
TABLE
  2
APPID
  5
542
330
0
100
AcDbSymbolTable
 70
     5
  0
APPID
  5
54B
330
542
100
AcDbSymbolTableRecord
100
AcDbRegAppTableRecord
  2
ACAD
 70
     0
  0
APPID
  5
563
330
542
100
AcDbSymbolTableRecord
100
AcDbRegAppTableRecord
  2
ACADANNOTATIVE
 70
     0
  0
APPID
  5
564
330
542
100
AcDbSymbolTableRecord
100
AcDbRegAppTableRecord
  2
ACAD_EXEMPT_FROM_CAD_STANDARDS
 70
     0
  0
APPID
  5
565
330
542
100
AcDbSymbolTableRecord
100
AcDbRegAppTableRecord
  2
ACAD_NAV_VCDISPLAY
 70
     0
  0
APPID
  5
566
330
542
100
AcDbSymbolTableRecord
100
AcDbRegAppTableRecord
  2
ACAD_MLEADERVER
 70
     0
  0
ENDTAB
  0
TABLE
  2
DIMSTYLE
  5
543
330
0
100
AcDbSymbolTable
 70
     2
100
AcDbDimStyleTable
  0
DIMSTYLE
105
567
330
543
100
AcDbSymbolTableRecord
100
AcDbDimStyleTableRecord
  2
STANDARD
 70
     0
178
     0
340
54A
  0
DIMSTYLE
105
568
330
543
100
AcDbSymbolTableRecord
100
AcDbDimStyleTableRecord
  2
ANNOTATIVE
 70
     0
178
     0
340
54A
  0
ENDTAB
  0
TABLE
  2
BLOCK_RECORD
  5
53A
330
0
100
AcDbSymbolTable
 70
     3
  0
BLOCK_RECORD
  5
555
330
53A
100
AcDbSymbolTableRecord
100
AcDbBlockTableRecord
  2
*Model_Space
340
556
 70
     0
280
     1
281
     0
  0
BLOCK_RECORD
  5
553
330
53A
100
AcDbSymbolTableRecord
100
AcDbBlockTableRecord
  2
*Paper_Space
340
554
 70
     0
280
     1
281
     0
  0
BLOCK_RECORD
  5
56C
330
53A
100
AcDbSymbolTableRecord
100
AcDbBlockTableRecord
  2
*U0
340
0
102
{BLKREFS
331
0
102
}
 70
     0
280
     1
281
     0
  0
BLOCK_RECORD
  5
56E
330
53A
100
AcDbSymbolTableRecord
100
AcDbBlockTableRecord
  2
*U1
340
0
102
{BLKREFS
331
0
102
}
 70
     0
280
     1
281
     0
  0
BLOCK_RECORD
  5
570
330
53A
100
AcDbSymbolTableRecord
100
AcDbBlockTableRecord
  2
*U2
340
0
102
{BLKREFS
331
0
102
}
 70
     0
280
     1
281
     0
  0
ENDTAB
  0
ENDSEC
  0
SECTION
  2
BLOCKS
  0
BLOCK
  5
569
330
555
100
AcDbEntity
  8
0
100
AcDbBlockBegin
  2
*Model_Space
 70
     0
 10
0.0
 20
0.0
 30
0.0
  3
*Model_Space
  1

  0
ENDBLK
  5
2D6
330
555
100
AcDbEntity
  8
0
100
AcDbBlockEnd
  0
BLOCK
  5
56A
330
553
100
AcDbEntity
 67
     1
  8
0
100
AcDbBlockBegin
  2
*Paper_Space
 70
     0
 10
0.0
 20
0.0
 30
0.0
  3
*Paper_Space
  1

  0
ENDBLK
  5
2D2
330
553
100
AcDbEntity
 67
     1
  8
0
100
AcDbBlockEnd
  0
BLOCK
  5
56B
330
56C
100
AcDbEntity
  8
0
100
AcDbBlockBegin
  2
*U0
 70
     1
 10
0.0
 20
0.0
 30
0.0
  3
*U0
  1

  0
TEXT
  5
52F
330
56C
100
AcDbEntity
  8
0
100
AcDbText
 10
21.22327174790738
 20
1.55017928018718
 30
0.0
 40
0.5
  1
F-803A
100
AcDbText
  0
ENDBLK
  5
531
330
56C
100
AcDbEntity
  8
0
100
AcDbBlockEnd
  0
BLOCK
  5
56D
330
56E
100
AcDbEntity
  8
0
100
AcDbBlockBegin
  2
*U1
 70
     1
 10
0.0
 20
0.0
 30
0.0
  3
*U1
  1

  0
TEXT
  5
533
330
56E
100
AcDbEntity
  8
0
100
AcDbText
 10
1.204704238567046
 20
2.171211213133119
 30
0.0
 40
0.5
  1
F-803B-L
100
AcDbText
  0
ENDBLK
  5
535
330
56E
100
AcDbEntity
  8
0
100
AcDbBlockEnd
  0
BLOCK
  5
56F
330
570
100
AcDbEntity
  8
0
100
AcDbBlockBegin
  2
*U2
 70
     1
 10
0.0
 20
0.0
 30
0.0
  3
*U2
  1

  0
TEXT
  5
537
330
570
100
AcDbEntity
  8
0
100
AcDbText
 10
52.38837036846106
 20
2.075667947476972
 30
0.0
 40
0.5
  1
F-803B-R
100
AcDbText
  0
ENDBLK
  5
539
330
570
100
AcDbEntity
  8
0
100
AcDbBlockEnd
  0
ENDSEC
  0
SECTION
  2
ENTITIES
  0
LINE
  5
14C
330
555
100
AcDbEntity
  8
0
100
AcDbLine
 10
31.11964736559015
 20
12.55940081423271
 30
-0.0000000000000071
 11
30.29144259947142
 21
12.59068126198116
 31
-0.0000000000000142
210
1.0
220
1.000000000000000E-16
230
0.0
  0
LINE
  5
14D
330
555
100
AcDbEntity
  8
0
100
AcDbLine
 10
40.51026251452213
 20
-0.0000000139075453
 30
0.0000000000000212
 11
16.76026251452213
 21
-0.0000000139074938
 31
0.0000000000000072
210
1.000000000000000E-16
220
0.9909703095825948
230
-0.134081488378434
  0
LINE
  5
14E
330
555
100
AcDbEntity
  8
0
100
AcDbLine
 10
11.03388586976187
 20
11.12349802869048
 30
-0.0000000000074188
 11
11.39526251452213
 21
11.17652532853659
 31
-0.0000000000074221
210
-1.0
220
1.000000000000000E-16
230
0.0
  0
LINE
  5
14F
330
555
100
AcDbEntity
  8
0
100
AcDbLine
 10
10.86645410318229
 20
12.10963813228953
 30
-0.0000000000074223
 11
11.68643128012633
 21
12.22995906685798
 31
-0.0000000000074259
210
-1.0
220
1.000000000000000E-16
230
0.0
  0
LINE
  5
150
330
555
100
AcDbEntity
  8
0
100
AcDbLine
 10
1.106832770297071
 20
5.258810545875295
 30
-0.0000000000074188
 11
1.497656688369402
 21
5.989558017023084
 31
-0.0000000000074188
210
-1.0
220
1.000000000000000E-16
230
0.0
  0
LINE
  5
151
330
555
100
AcDbEntity
  8
0
100
AcDbLine
 10
5.395262514522136
 20
8.809778121146215
 30
-0.0000000000073973
 11
5.395262514522143
 21
0.124999986092531
 31
-0.0000000000073745
210
-1.0
220
1.000000000000000E-16
230
0.0
  0
CIRCLE
  5
152
330
555
100
AcDbEntity
  8
0
100
AcDbCircle
 10
5.020262514522136
 20
1.521999986092527
 30
-0.0000000002986702
 40
0.046875
  0
CIRCLE
  5
153
330
555
100
AcDbEntity
  8
0
100
AcDbCircle
 10
5.020262514522136
 20
5.240749986092526
 30
-0.0000000002986631
 40
0.046875
  0
LINE
  5
154
330
555
100
AcDbEntity
  8
0
100
AcDbLine
 10
0.1250000173218027
 20
-0.0000000139074814
 30
-0.0000000000073376
 11
5.270262514522136
 21
-0.000000013907469
 31
-0.0000000000073613
210
-4.000000000000000E-16
220
0.9909703095825948
230
-0.1340814883784339
  0
ARC
  5
155
330
555
100
AcDbEntity
  8
0
100
AcDbCircle
 10
0.3505630762067753
 20
2.748371900437606
 30
-0.0000000000107121
 40
0.0625
100
AcDbArc
 50
75.87728340271318
 51
167.7602383953314
  0
ARC
  5
156
330
555
100
AcDbEntity
  8
0
100
AcDbCircle
 10
0.6423535133556939
 20
3.743878996150268
 30
-0.000000000015487
 40
0.125
100
AcDbArc
 50
160.848795588941
 51
255.8355537687979
  0
LINE
  5
157
330
555
100
AcDbEntity
  8
0
100
AcDbLine
 10
0.1327023279785351
 20
2.039095551937516
 30
-0.0000000000074294
 11
0.0000000173217956
 21
1.223121487907788
 31
-0.0000000000074259
  0
ARC
  5
158
330
555
100
AcDbEntity
  8
0
100
AcDbCircle
 10
0.1250000173218027
 20
0.1249999860925186
 30
-0.0000000000076756
 40
0.125
100
AcDbArc
 50
179.9999999999992
 51
270.0000000000002
  0
LINE
  5
159
330
555
100
AcDbEntity
  8
0
100
AcDbLine
 10
0.0000000173218027
 20
1.223121487907792
 30
-0.0000000000074401
 11
0.0000000173218133
 21
0.1249999860925168
 31
-0.0000000000073266
  0
CIRCLE
  5
15A
330
555
100
AcDbEntity
  8
0
100
AcDbCircle
 10
0.3602305767397667
 20
1.572353015311725
 30
-0.0000000000074969
 40
0.046875
  0
LINE
  5
15B
330
555
100
AcDbEntity
  8
0
100
AcDbLine
 10
0.6117652922995945
 20
3.622679323161277
 30
-0.0000000000073832
 11
1.256401537880356
 21
3.459986838154438
 31
-0.0000000000073903
210
-0.9999998332209687
220
-0.0005775448335471
230
0.0
  0
LINE
  5
15C
330
555
100
AcDbEntity
  8
0
100
AcDbLine
 10
0.2894837633513987
 20
2.761622090667176
 30
-0.0000000000074365
 11
0.1324191916862247
 21
2.037602590355755
 31
-0.000000000007433
  0
CIRCLE
  5
15D
330
555
100
AcDbEntity
  8
0
100
AcDbCircle
 10
0.5473806333188236
 20
2.537731992263618
 30
-0.0000000000074543
 40
0.046875
  0
CIRCLE
  5
15E
330
555
100
AcDbEntity
  8
0
100
AcDbCircle
 10
0.8586425569365694
 20
3.032303972570896
 30
-0.000000000007433
 40
0.0625
  0
LINE
  5
15F
330
555
100
AcDbEntity
  8
0
100
AcDbLine
 10
1.223362171563745
 20
3.329020384468527
 30
-0.0000000000073903
 11
0.7381172250294803
 21
3.451551409496171
 31
-0.0000000000073974
210
-0.9999998332209687
220
-0.0005775448335471
230
0.0
  0
LINE
  5
160
330
555
100
AcDbEntity
  8
0
100
AcDbLine
 10
0.3830506534350775
 20
2.804645806023112
 30
-0.0000000000073868
 11
0.3658130466392464
 21
2.808982859857581
 31
-0.0000000000073868
210
-0.9999998332209687
220
-0.0005775448335471
230
0.0
  0
ARC
  5
161
330
555
100
AcDbEntity
  8
0
100
AcDbCircle
 10
0.398300623867577
 20
2.86525676544306
 30
-0.0000000000068148
 40
0.0625
100
AcDbArc
 50
255.8772834027088
 51
345.9988615939679
  0
LINE
  5
162
330
555
100
AcDbEntity
  8
0
100
AcDbLine
 10
0.5862272558297761
 20
3.360598266731158
 30
-0.0000000000073939
 11
0.458943806327227
 21
2.850135442049743
 31
-0.0000000000073903
210
-0.9999998332209687
220
-0.0005775448335471
230
0.0
  0
ARC
  5
163
330
555
100
AcDbEntity
  8
0
100
AcDbCircle
 10
0.7075136207490793
 20
3.330355619944516
 30
-0.000000000008076
 40
0.125
100
AcDbArc
 50
75.82828140636694
 51
165.9988615939679
  0
LINE
  5
164
330
555
100
AcDbEntity
  8
0
100
AcDbLine
 10
1.301739473985342
 20
3.384221088529176
 30
-0.0000000000073832
 11
1.299296020336973
 21
3.374452366113561
 31
-0.0000000000073832
210
-0.9999998332209687
220
-0.0005775448335471
230
0.0
  0
ARC
  5
165
330
555
100
AcDbEntity
  8
0
100
AcDbCircle
 10
1.238663973703945
 20
3.389618279244348
 30
-0.0000000000070138
 40
0.0625
100
AcDbArc
 50
255.8282814063671
 51
345.9567292694965
  0
ARC
  5
166
330
555
100
AcDbEntity
  8
0
100
AcDbCircle
 10
1.241107427352317
 20
3.39938700165996
 30
-0.0000000000072873
 40
0.0625
100
AcDbArc
 50
345.9567292694948
 51
75.83555376879731
  0
LINE
  5
167
330
555
100
AcDbEntity
  8
0
100
AcDbLine
 10
0.524271500245213
 20
3.784886778091943
 30
-0.0000000000074223
 11
0.7742867154722965
 21
4.50480623088888
 31
-0.0000000000074188
210
-1.0
220
1.000000000000000E-16
230
0.0
  0
CIRCLE
  5
168
330
555
100
AcDbEntity
  8
0
100
AcDbCircle
 10
0.872289970638551
 20
3.874070377254151
 30
-0.0000000000074649
 40
0.046875
  0
LINE
  5
169
330
555
100
AcDbEntity
  8
0
100
AcDbLine
 10
0.7734258146525974
 20
4.502617893518729
 30
-0.0000000000074188
 11
1.107794545085553
 21
5.260785202508341
 31
-0.0000000000074188
210
-1.0
220
1.000000000000000E-16
230
0.0
  0
CIRCLE
  5
16A
330
555
100
AcDbEntity
  8
0
100
AcDbCircle
 10
1.22410469131655
 20
4.782299167454873
 30
-0.0000000000074756
 40
0.046875
  0
ARC
  5
16B
330
555
100
AcDbEntity
  8
0
100
AcDbCircle
 10
5.270262514522136
 20
0.124999986092531
 30
-0.0000000000076756
 40
0.125
100
AcDbArc
 50
270.0000000000002
 51
359.9999999999998
  0
CIRCLE
  5
16C
330
555
100
AcDbEntity
  8
0
100
AcDbCircle
 10
5.020262514522136
 20
1.178999986092534
 30
-0.0000000000074365
 40
0.0625
  0
CIRCLE
  5
16D
330
555
100
AcDbEntity
  8
0
100
AcDbCircle
 10
5.020262514522136
 20
4.897749986092531
 30
-0.000000000007433
 40
0.0625
  0
CIRCLE
  5
16E
330
555
100
AcDbEntity
  8
0
100
AcDbCircle
 10
5.020262514522136
 20
8.959499986092538
 30
-0.0000000002986667
 40
0.046875
  0
CIRCLE
  5
16F
330
555
100
AcDbEntity
  8
0
100
AcDbCircle
 10
6.829269725404144
 20
10.71101679332985
 30
-0.0000000002986844
 40
0.046875
  0
CIRCLE
  5
170
330
555
100
AcDbEntity
  8
0
100
AcDbCircle
 10
10.5904195638409
 20
11.89687477391439
 30
-0.0000000002986987
 40
0.046875
  0
LINE
  5
171
330
555
100
AcDbEntity
  8
0
100
AcDbLine
 10
1.496614054698261
 20
5.987765719935796
 30
-0.0000000000074188
 11
1.938706413065354
 21
6.688802188244841
 31
-0.0000000000074188
210
-1.0
220
1.000000000000000E-16
230
0.0
  0
CIRCLE
  5
172
330
555
100
AcDbEntity
  8
0
100
AcDbCircle
 10
6.450796233673449
 20
10.36248239373943
 30
-0.0000000000074614
 40
0.046875
  0
LINE
  5
173
330
555
100
AcDbEntity
  8
0
100
AcDbLine
 10
6.17367936201258
 20
10.55881152413155
 30
-0.0000000000074259
 11
6.915283490776174
 21
10.92942515441424
 31
-0.0000000000074259
210
-1.0
220
1.000000000000000E-16
230
0.0
  0
LINE
  5
174
330
555
100
AcDbEntity
  8
0
100
AcDbLine
 10
6.002156971341281
 20
9.296354469051336
 30
-0.0000000000074259
 11
6.652801612056912
 21
9.680330529637203
 31
-0.000000000007433
210
-1.0
220
1.000000000000000E-16
230
0.0
  0
LINE
  5
175
330
555
100
AcDbEntity
  8
0
100
AcDbLine
 10
5.448995273510052
 20
8.912471744894361
 30
-0.0000000000074032
 11
6.002156971341285
 21
9.296354469051343
 31
-0.0000000000074259
210
-1.0
220
1.000000000000000E-16
230
0.0
  0
LINE
  5
176
330
555
100
AcDbEntity
  8
0
100
AcDbLine
 10
3.52759719264446
 20
8.58790266896171
 30
-0.0000000000074223
 11
4.13810792901092
 21
9.149453398654163
 31
-0.0000000000074188
210
-1.0
220
1.000000000000000E-16
230
0.0
  0
LINE
  5
177
330
555
100
AcDbEntity
  8
0
100
AcDbLine
 10
1.937593397825732
 20
6.687164033562921
 30
-0.0000000000074188
 11
2.426581965764792
 21
7.356500077869683
 31
-0.0000000000074152
210
-1.0
220
1.000000000000000E-16
230
0.0
  0
CIRCLE
  5
178
330
555
100
AcDbEntity
  8
0
100
AcDbCircle
 10
1.658842678341699
 20
5.65588380850863
 30
-0.0000000000074721
 40
0.046875
  0
CIRCLE
  5
179
330
555
100
AcDbEntity
  8
0
100
AcDbCircle
 10
2.167702949415314
 20
6.490453202894221
 30
-0.0000000000074721
 40
0.046875
  0
CIRCLE
  5
17A
330
555
100
AcDbEntity
  8
0
100
AcDbCircle
 10
2.737460940941494
 20
7.261166692340281
 30
-0.0000000000074614
 40
0.046875
  0
LINE
  5
17B
330
555
100
AcDbEntity
  8
0
100
AcDbLine
 10
2.425400722111482
 20
7.354990552506841
 30
-0.0000000000074188
 11
2.957647239331436
 21
7.99069381274433
 31
-0.0000000000074188
210
-1.0
220
1.000000000000000E-16
230
0.0
  0
LINE
  5
17C
330
555
100
AcDbEntity
  8
0
100
AcDbLine
 10
2.95639107000766
 20
7.989288865831233
 30
-0.0000000000074188
 11
3.5289440989335
 21
8.589225020272746
 31
-0.0000000000074259
210
-1.0
220
1.000000000000000E-16
230
0.0
  0
CIRCLE
  5
17D
330
555
100
AcDbEntity
  8
0
100
AcDbCircle
 10
3.380387488343393
 20
7.999759674081718
 30
-0.0000000000074614
 40
0.046875
  0
CIRCLE
  5
17E
330
555
100
AcDbEntity
  8
0
100
AcDbCircle
 10
4.077727082862661
 20
8.6869868817746
 30
-0.0000000000074543
 40
0.046875
  0
CIRCLE
  5
17F
330
555
100
AcDbEntity
  8
0
100
AcDbCircle
 10
5.020262514522136
 20
8.616499986092538
 30
-0.000000000007433
 40
0.0625
  0
ARC
  5
180
330
555
100
AcDbEntity
  8
0
100
AcDbCircle
 10
5.520262514522136
 20
8.809778121146215
 30
-0.000000000007877
 40
0.125
100
AcDbArc
 50
124.7598444588688
 51
180.0000000000001
  0
LINE
  5
181
330
555
100
AcDbEntity
  8
0
100
AcDbLine
 10
4.781682341605455
 20
9.666583301434628
 30
-0.0000000000074294
 11
5.463113437216485
 21
10.1394823223431
 31
-0.0000000000074259
210
-1.0
220
1.000000000000000E-16
230
0.0
  0
LINE
  5
182
330
555
100
AcDbEntity
  8
0
100
AcDbLine
 10
4.136640101224641
 20
9.14819108218848
 30
-0.0000000000074223
 11
4.783312897162299
 21
9.667801830912566
 31
-0.0000000000074259
210
-1.0
220
1.000000000000000E-16
230
0.0
  0
CIRCLE
  5
183
330
555
100
AcDbEntity
  8
0
100
AcDbCircle
 10
4.825960717775203
 20
9.317864451890983
 30
-0.0000000000074578
 40
0.046875
  0
CIRCLE
  5
184
330
555
100
AcDbEntity
  8
0
100
AcDbCircle
 10
5.622407583872106
 20
9.885473897024958
 30
-0.0000000000074472
 40
0.046875
  0
LINE
  5
185
330
555
100
AcDbEntity
  8
0
100
AcDbLine
 10
5.461318479781276
 20
10.13833204281755
 30
-0.0000000000074223
 11
6.175454483571981
 21
10.55977734844008
 31
-0.0000000000074259
210
-1.0
220
1.000000000000000E-16
230
0.0
  0
LINE
  5
186
330
555
100
AcDbEntity
  8
0
100
AcDbLine
 10
8.455544553320202
 20
11.52662645675956
 30
-0.0000000000074259
 11
9.250661615788417
 21
11.76064111081719
 31
-0.0000000000074188
210
-1.0
220
1.000000000000000E-16
230
0.0
  0
ARC
  5
187
330
555
100
AcDbEntity
  8
0
100
AcDbCircle
 10
8.88151251452214
 20
10.90886280514971
 30
0.0000000000000029
 40
0.125
100
AcDbArc
 50
90.0
 51
180.0
  0
LINE
  5
188
330
555
100
AcDbEntity
  8
0
100
AcDbLine
 10
8.756512514522136
 20
10.57230646393084
 30
0.0000000000000029
 11
8.75651251452214
 21
10.90886280514971
 31
0.0000000000000029
  0
CIRCLE
  5
189
330
555
100
AcDbEntity
  8
0
100
AcDbCircle
 10
7.335967061804851
 20
10.78181538466235
 30
-0.0000000000074436
 40
0.046875
  0
LINE
  5
18A
330
555
100
AcDbEntity
  8
0
100
AcDbLine
 10
7.332799560826577
 20
10.0201567234294
 30
-0.0000000000074188
 11
8.038211726955632
 21
10.31784637124611
 31
-0.0000000000074152
210
-1.0
220
1.000000000000000E-16
230
0.0
  0
LINE
  5
18B
330
555
100
AcDbEntity
  8
0
100
AcDbLine
 10
6.652801612056912
 20
9.680330529637203
 30
-0.000000000007433
 11
7.332799560826577
 21
10.0201567234294
 31
-0.0000000000074223
210
-1.0
220
1.000000000000000E-16
230
0.0
  0
CIRCLE
  5
18C
330
555
100
AcDbEntity
  8
0
100
AcDbCircle
 10
6.972689339396815
 20
10.3994404554571
 30
-0.0000000000074436
 40
0.0625
  0
LINE
  5
18D
330
555
100
AcDbEntity
  8
0
100
AcDbLine
 10
8.038211726955632
 20
10.31784637124611
 30
-0.0000000000074259
 11
8.75651251452214
 21
10.57230646393083
 31
-0.0000000000074329
210
-1.0
220
1.000000000000000E-16
230
0.0
  0
LINE
  5
18E
330
555
100
AcDbEntity
  8
0
100
AcDbLine
 10
6.913594903340576
 20
10.92864789205902
 30
-0.0000000000074259
 11
7.677323190981846
 21
11.25094741550389
 31
-0.0000000000074223
210
-1.0
220
1.000000000000000E-16
230
0.0
  0
CIRCLE
  5
18F
330
555
100
AcDbEntity
  8
0
100
AcDbCircle
 10
8.250858111168174
 20
11.13633287130949
 30
-0.0000000000074436
 40
0.046875
  0
LINE
  5
190
330
555
100
AcDbEntity
  8
0
100
AcDbLine
 10
7.675731517597846
 20
11.25033025422543
 30
-0.0000000000074259
 11
8.457040344129759
 21
11.52711112354375
 31
-0.0000000000074259
210
-1.0
220
1.000000000000000E-16
230
0.0
  0
LINE
  5
191
330
555
100
AcDbEntity
  8
0
100
AcDbLine
 10
10.05374960104041
 20
11.9538178245493
 30
-0.0000000000074259
 11
10.86770358814369
 21
12.10984946183308
 31
-0.0000000000074188
210
-1.0
220
1.000000000000000E-16
230
0.0
  0
LINE
  5
192
330
555
100
AcDbEntity
  8
0
100
AcDbLine
 10
10.56629513716421
 20
11.03386280514971
 30
0.0000000000000029
 11
8.88151251452214
 21
11.03386280514971
 31
0.0000000000000029
  0
CIRCLE
  5
193
330
555
100
AcDbEntity
  8
0
100
AcDbCircle
 10
9.188648083048072
 20
11.43018745478215
 30
-0.0000000000074401
 40
0.046875
  0
LINE
  5
194
330
555
100
AcDbEntity
  8
0
100
AcDbLine
 10
9.249256189624033
 20
11.76026550863526
 30
-0.0000000000074188
 11
10.05507227415397
 21
11.95410352084345
 31
-0.0000000000074294
210
-1.0
220
1.000000000000000E-16
230
0.0
  0
CIRCLE
  5
195
330
555
100
AcDbEntity
  8
0
100
AcDbCircle
 10
10.12995371316853
 20
11.66347257564364
 30
-0.0000000000074543
 40
0.046875
  0
CIRCLE
  5
196
330
555
100
AcDbEntity
  8
0
100
AcDbCircle
 10
10.64761992329205
 20
11.55867790982683
 30
-0.0000000000074614
 40
0.0625
  0
LINE
  5
197
330
555
100
AcDbEntity
  8
0
100
AcDbLine
 10
10.56629513716423
 20
11.03386280514971
 30
-0.0000000000074203
 11
11.03388586976187
 21
11.12349802869049
 31
-0.0000000000074117
210
-1.0
220
1.000000000000000E-16
230
0.0
  0
CIRCLE
  5
198
330
555
100
AcDbEntity
  8
0
100
AcDbCircle
 10
11.10007450131236
 20
11.84121166867001
 30
-0.0000000000074472
 40
0.046875
  0
LINE
  5
199
330
555
100
AcDbEntity
  8
0
100
AcDbLine
 10
16.63526251452213
 20
9.622962781025159
 30
0.0000000000000036
 11
16.63526251452213
 21
0.1249999860925062
 31
0.0000000000000074
210
-1.0
220
0.0
230
0.0
  0
ARC
  5
19A
330
555
100
AcDbEntity
  8
0
100
AcDbCircle
 10
16.76026251452213
 20
0.1249999860925062
 30
0.0000000000000096
 40
0.125
100
AcDbArc
 50
180.0
 51
269.9999999999997
  0
CIRCLE
  5
19B
330
555
100
AcDbEntity
  8
0
100
AcDbCircle
 10
17.01026251452214
 20
1.304999986092491
 30
-0.0000000000000178
 40
0.0625
  0
CIRCLE
  5
19C
330
555
100
AcDbEntity
  8
0
100
AcDbCircle
 10
17.01026251452214
 20
5.023749986092488
 30
-0.0000000000000142
 40
0.0625
  0
CIRCLE
  5
1A1
330
555
100
AcDbEntity
  8
0
100
AcDbCircle
 10
14.54594981596923
 20
12.29083346521854
 30
-0.00000000029872
 40
0.046875
  0
LINE
  5
1A2
330
555
100
AcDbEntity
  8
0
100
AcDbLine
 10
20.4455445533202
 20
11.65262645675952
 30
-0.0000000000000107
 11
21.24066161578841
 21
11.88664111081715
 31
-0.0000000000000071
210
-1.0
220
0.0
230
0.0
  0
LINE
  5
1A3
330
555
100
AcDbEntity
  8
0
100
AcDbLine
 10
15.81697623562501
 20
12.48300352496933
 30
-0.0000000000074117
 11
16.50860352676875
 21
12.49218354315199
 31
-0.0000000000074177
210
-1.0
220
1.000000000000000E-16
230
0.0
  0
LINE
  5
1A4
330
555
100
AcDbEntity
  8
0
100
AcDbLine
 10
16.51026251452214
 20
11.47136280514969
 30
0.0000000000000029
 11
11.52026251452213
 21
11.47136280514969
 31
0.0000000000000029
  0
LINE
  5
1A5
330
555
100
AcDbEntity
  8
0
100
AcDbLine
 10
13.33420431312217
 20
12.38390725132154
 30
-0.0000000000074259
 11
14.16151604589494
 21
12.4334319734628
 31
-0.0000000000074188
210
-1.0
220
1.000000000000000E-16
230
0.0
  0
LINE
  5
1A6
330
555
100
AcDbEntity
  8
0
100
AcDbLine
 10
11.68527741238207
 20
12.22981332317215
 30
-0.0000000000074259
 11
12.50942892643219
 21
12.31716017256087
 31
-0.0000000000074259
210
-1.0
220
1.000000000000000E-16
230
0.0
  0
ARC
  5
1A7
330
555
100
AcDbEntity
  8
0
100
AcDbCircle
 10
11.52026251452213
 20
11.34636280514969
 30
0.0000000000000029
 40
0.125
100
AcDbArc
 50
90.0
 51
179.9999999999988
  0
LINE
  5
1A8
330
555
100
AcDbEntity
  8
0
100
AcDbLine
 10
11.39526251452213
 20
11.34636280514969
 30
0.0000000000000029
 11
11.39526251452213
 21
11.1765253285366
 31
0.0000000000000029
  0
CIRCLE
  5
1A9
330
555
100
AcDbEntity
  8
0
100
AcDbCircle
 10
12.07890331995185
 20
11.97035397463406
 30
-0.0000000000074507
 40
0.046875
  0
LINE
  5
1AA
330
555
100
AcDbEntity
  8
0
100
AcDbLine
 10
12.50871185113592
 20
12.31709316703426
 30
-0.0000000000074259
 11
13.33481075271085
 21
12.38394993781319
 31
-0.0000000000074259
210
-1.0
220
1.000000000000000E-16
230
0.0
  0
CIRCLE
  5
1AB
330
555
100
AcDbEntity
  8
0
100
AcDbCircle
 10
13.06685297881905
 20
12.06178469615904
 30
-0.0000000000074543
 40
0.046875
  0
LINE
  5
1AC
330
555
100
AcDbEntity
  8
0
100
AcDbLine
 10
14.16087766345413
 20
12.43340081423275
 30
-0.0000000000074259
 11
14.98908242957285
 21
12.4646812619812
 31
-0.0000000000074294
210
-1.0
220
1.000000000000000E-16
230
0.0
  0
CIRCLE
  5
1AD
330
555
100
AcDbEntity
  8
0
100
AcDbCircle
 10
14.05810428572768
 20
12.12720536811782
 30
-0.0000000000074472
 40
0.046875
  0
CIRCLE
  5
1AE
330
555
100
AcDbEntity
  8
0
100
AcDbCircle
 10
14.55999539678731
 20
11.94812116363092
 30
-0.0000000000074827
 40
0.0625
  0
LINE
  5
1AF
330
555
100
AcDbEntity
  8
0
100
AcDbLine
 10
14.98862964059401
 20
12.464667701088
 30
-0.000000000007433
 11
15.81723308146906
 21
12.48300807196929
 31
-0.0000000000074259
210
-1.0
220
1.000000000000000E-16
230
0.0
  0
CIRCLE
  5
1B0
330
555
100
AcDbEntity
  8
0
100
AcDbCircle
 10
15.04557812117365
 20
12.16635484691038
 30
-0.0000000000074543
 40
0.046875
  0
CIRCLE
  5
1B1
330
555
100
AcDbEntity
  8
0
100
AcDbCircle
 10
16.04757975414588
 20
11.81150492965246
 30
-0.0000000000074294
 40
0.046875
  0
CIRCLE
  5
1B2
330
555
100
AcDbEntity
  8
0
100
AcDbCircle
 10
16.04260279088572
 20
12.18647190131358
 30
-0.0000000000074401
 40
0.046875
  0
CIRCLE
  5
1B3
330
555
100
AcDbEntity
  8
0
100
AcDbCircle
 10
17.01026251452214
 20
8.742499986092497
 30
-0.0000000000000142
 40
0.0625
  0
LINE
  5
1B4
330
555
100
AcDbEntity
  8
0
100
AcDbLine
 10
18.16367936201258
 20
10.68481152413151
 30
-0.0000000000000142
 11
18.90528349077617
 21
11.0554251544142
 31
-0.0000000000000142
210
-1.0
220
0.0
230
0.0
  0
LINE
  5
1B5
330
555
100
AcDbEntity
  8
0
100
AcDbLine
 10
16.77168234160545
 20
9.792583301434592
 30
-0.0000000000000107
 11
17.45311343721648
 21
10.26548232234307
 31
-0.0000000000000142
210
-1.0
220
0.0
230
0.0
  0
LINE
  5
1B6
330
555
100
AcDbEntity
  8
0
100
AcDbLine
 10
16.68196701679951
 20
9.720404122540794
 30
-0.0000000000000096
 11
16.7733128971623
 21
9.793801830912535
 31
-0.0000000000000213
210
-1.0
220
0.0
230
0.0
  0
ARC
  5
1B7
330
555
100
AcDbEntity
  8
0
100
AcDbCircle
 10
16.76026251452213
 20
9.622962781025159
 30
-0.0000000000015378
 40
0.125
100
AcDbArc
 50
128.782370262677
 51
180.0
  0
LINE
  5
1B8
330
555
100
AcDbEntity
  8
0
100
AcDbLine
 10
17.45131847978127
 20
10.26433204281751
 30
-0.0000000000000071
 11
18.16545448357198
 21
10.68577734844005
 31
-0.0000000000000142
210
-1.0
220
0.0
230
0.0
  0
LINE
  5
1B9
330
555
100
AcDbEntity
  8
0
100
AcDbLine
 10
16.63526251452213
 20
12.36719455259829
 30
-0.000000000007421
 11
16.63526251452213
 21
11.59636280514969
 31
-0.0000000000072389
210
-1.0
220
1.000000000000000E-16
230
0.0
  0
ARC
  5
1BA
330
555
100
AcDbEntity
  8
0
100
AcDbCircle
 10
16.51026251452214
 20
11.59636280514969
 30
0.0000000000950669
 40
0.125
100
AcDbArc
 50
270.0
 51
0.0
  0
ARC
  5
1BB
330
555
100
AcDbEntity
  8
0
100
AcDbCircle
 10
16.51026251452214
 20
12.36719455259829
 30
-0.0000000000074288
 40
0.125
100
AcDbArc
 50
0.0
 51
90.76044629797488
  0
CIRCLE
  5
1BC
330
555
100
AcDbEntity
  8
0
100
AcDbCircle
 10
18.96268933939681
 20
10.52544045545705
 30
-0.0000000000000213
 40
0.0625
  0
LINE
  5
1BD
330
555
100
AcDbEntity
  8
0
100
AcDbLine
 10
19.66573151759784
 20
11.3763302542254
 30
-0.0000000000000107
 11
20.44704034412975
 21
11.6531111235437
 31
-0.0000000000000142
210
-1.0
220
0.0
230
0.0
  0
LINE
  5
1BE
330
555
100
AcDbEntity
  8
0
100
AcDbLine
 10
18.90359490334056
 20
11.05464789205899
 30
-0.0000000000000142
 11
19.66732319098184
 21
11.37694741550385
 31
-0.0000000000000107
210
-1.0
220
0.0
230
0.0
  0
LINE
  5
1BF
330
555
100
AcDbEntity
  8
0
100
AcDbLine
 10
25.32420431312218
 20
12.5099072513215
 30
-0.0000000000000107
 11
26.15151604589494
 21
12.55943197346276
 31
-0.0000000000000071
210
-1.0
220
0.0
230
0.0
  0
LINE
  5
1C0
330
555
100
AcDbEntity
  8
0
100
AcDbLine
 10
22.8564541031823
 20
12.23563813228949
 30
-0.0000000000000071
 11
23.67643128012633
 21
12.35595906685794
 31
-0.0000000000000107
210
-1.0
220
0.0
230
0.0
  0
LINE
  5
1C1
330
555
100
AcDbEntity
  8
0
100
AcDbLine
 10
22.04374960104041
 20
12.07981782454926
 30
-0.0000000000000142
 11
22.85770358814369
 21
12.23584946183305
 31
-0.0000000000000071
210
-1.0
220
0.0
230
0.0
  0
LINE
  5
1C2
330
555
100
AcDbEntity
  8
0
100
AcDbLine
 10
21.23925618962403
 20
11.88626550863523
 30
-0.0000000000000071
 11
22.04507227415397
 21
12.08010352084341
 31
-0.0000000000000142
210
-1.0
220
0.0
230
0.0
  0
CIRCLE
  5
1C3
330
555
100
AcDbEntity
  8
0
100
AcDbCircle
 10
22.63761992329205
 20
11.68467790982678
 30
-0.0000000000000426
 40
0.0625
  0
LINE
  5
1C4
330
555
100
AcDbEntity
  8
0
100
AcDbLine
 10
24.49871185113592
 20
12.44309316703422
 30
-0.0000000000000142
 11
25.32481075271086
 21
12.50994993781315
 31
-0.0000000000000142
210
-1.0
220
0.0
230
0.0
  0
LINE
  5
1C5
330
555
100
AcDbEntity
  8
0
100
AcDbLine
 10
23.67527741238208
 20
12.35581332317211
 30
-0.0000000000000107
 11
24.49942892643219
 21
12.44316017256084
 31
-0.0000000000000142
210
-1.0
220
0.0
230
0.0
  0
CIRCLE
  5
1C6
330
555
100
AcDbEntity
  8
0
100
AcDbCircle
 10
26.54999539678731
 20
12.07412116363089
 30
-0.0000000000000639
 40
0.0625
  0
CIRCLE
  5
1C7
330
555
100
AcDbEntity
  8
0
100
AcDbCircle
 10
30.72052963225697
 20
12.07412116363089
 30
-0.0000000000000639
 40
0.0625
  0
LINE
  5
1C8
330
555
100
AcDbEntity
  8
0
100
AcDbLine
 10
27.80697623562501
 20
12.60900352496931
 30
0.0000000000000036
 11
28.63526251452213
 21
12.61999742760747
 31
-0.0000000000000071
210
-1.0
220
0.0
230
0.0
  0
LINE
  5
1C9
330
555
100
AcDbEntity
  8
0
100
AcDbLine
 10
26.97862964059401
 20
12.59066770108797
 30
-0.0000000000000142
 11
27.80723308146906
 21
12.60900807196924
 31
-0.0000000000000071
210
-1.0
220
0.0
230
0.0
  0
LINE
  5
1CA
330
555
100
AcDbEntity
  8
0
100
AcDbLine
 10
26.15087766345412
 20
12.55940081423271
 30
-0.0000000000000071
 11
26.97908242957286
 21
12.59068126198116
 31
-0.0000000000000142
210
-1.0
220
0.0
230
0.0
  0
LINE
  5
1CB
330
555
100
AcDbEntity
  8
0
100
AcDbLine
 10
30.29189538845026
 20
12.59066770108797
 30
-0.0000000000000142
 11
29.46329194757521
 21
12.60900807196924
 31
-0.0000000000000071
210
1.0
220
1.000000000000000E-16
230
0.0
  0
LINE
  5
1CC
330
555
100
AcDbEntity
  8
0
100
AcDbLine
 10
29.46354879341926
 20
12.60900352496931
 30
0.0000000000000036
 11
28.63526251452213
 21
12.61999742760747
 31
-0.0000000000000071
210
1.0
220
1.000000000000000E-16
230
0.0
  0
CIRCLE
  5
1CD
330
555
100
AcDbEntity
  8
0
100
AcDbCircle
 10
5.020262514522136
 20
0.8359999860925205
 30
0.0000000002837759
 40
0.046875
  0
CIRCLE
  5
1CE
330
555
100
AcDbEntity
  8
0
100
AcDbCircle
 10
5.020262514522141
 20
4.554749986092524
 30
0.000000000283783
 40
0.046875
  0
CIRCLE
  5
1CF
330
555
100
AcDbEntity
  8
0
100
AcDbCircle
 10
5.020262514522136
 20
8.273499986092531
 30
0.0000000002837794
 40
0.046875
  0
CIRCLE
  5
1D0
330
555
100
AcDbEntity
  8
0
100
AcDbCircle
 10
7.116108953389498
 20
10.08786411758435
 30
0.0000000002837616
 40
0.046875
  0
CIRCLE
  5
1D1
330
555
100
AcDbEntity
  8
0
100
AcDbCircle
 10
10.70482028274319
 20
11.22048104573926
 30
0.0000000002837474
 40
0.046875
  0
CIRCLE
  5
1D6
330
555
100
AcDbEntity
  8
0
100
AcDbCircle
 10
14.57404097760538
 20
11.6054088620433
 30
0.0000000002837261
 40
0.046875
  0
CIRCLE
  5
1DB
330
555
100
AcDbEntity
  8
0
100
AcDbCircle
 10
50.29783568964746
 20
10.39944045545698
 30
-0.000000000000022
 40
0.0625
  0
LINE
  5
1DC
330
555
100
AcDbEntity
  8
0
100
AcDbLine
 10
50.35693012570369
 20
10.92864789205891
 30
-0.0000000000000043
 11
49.59320183806242
 21
11.25094741550378
 31
-0.0000000000000007
210
1.0
220
1.000000000000000E-16
230
0.0
  0
LINE
  5
1DD
330
555
100
AcDbEntity
  8
0
100
AcDbLine
 10
50.61772341698738
 20
9.680330529637091
 30
-0.0000000000000114
 11
49.93772546821769
 21
10.02015672342928
 31
-0.0000000000000007
210
1.0
220
1.000000000000000E-16
230
0.0
  0
LINE
  5
1DE
330
555
100
AcDbEntity
  8
0
100
AcDbLine
 10
40.63526251452214
 20
9.622962781025162
 30
0.0000000000000036
 11
40.63526251452214
 21
0.1249999860924547
 31
0.0000000000000074
210
1.0
220
1.000000000000000E-16
230
0.0
  0
ARC
  5
1DF
330
555
100
AcDbEntity
  8
0
100
AcDbCircle
 10
40.51026251452213
 20
0.1249999860924547
 30
0.0000000000000091
 40
0.125
100
AcDbArc
 50
269.9999999999997
 51
0.0
  0
CIRCLE
  5
1E0
330
555
100
AcDbEntity
  8
0
100
AcDbCircle
 10
40.26026251452214
 20
1.304999986092493
 30
-0.0000000000000178
 40
0.0625
  0
CIRCLE
  5
1E1
330
555
100
AcDbEntity
  8
0
100
AcDbCircle
 10
40.26026251452214
 20
5.023749986092488
 30
-0.0000000000000142
 40
0.0625
  0
CIRCLE
  5
1E2
330
555
100
AcDbEntity
  8
0
100
AcDbCircle
 10
42.72457521307504
 20
12.29083346521843
 30
-0.0000000002912984
 40
0.046875
  0
CIRCLE
  5
1E3
330
555
100
AcDbEntity
  8
0
100
AcDbCircle
 10
46.68010546520337
 20
11.89687477391428
 30
-0.000000000291277
 40
0.046875
  0
LINE
  5
1E4
330
555
100
AcDbEntity
  8
0
100
AcDbLine
 10
40.58855801224477
 20
9.720404122540794
 30
-0.0000000000000096
 11
40.49721213188197
 21
9.793801830912535
 31
-0.0000000000000213
210
1.0
220
1.000000000000000E-16
230
0.0
  0
LINE
  5
1E5
330
555
100
AcDbEntity
  8
0
100
AcDbLine
 10
31.9463207159221
 20
12.5099072513215
 30
-0.0000000000000107
 11
31.11900898314933
 21
12.55943197346276
 31
-0.0000000000000071
210
1.0
220
1.000000000000000E-16
230
0.0
  0
LINE
  5
1E6
330
555
100
AcDbEntity
  8
0
100
AcDbLine
 10
36.03126883942024
 20
11.88626550863523
 30
-0.0000000000000071
 11
35.2254527548903
 21
12.08010352084341
 31
-0.0000000000000142
210
1.0
220
1.000000000000000E-16
230
0.0
  0
LINE
  5
1E7
330
555
100
AcDbEntity
  8
0
100
AcDbLine
 10
33.5952476166622
 20
12.35581332317211
 30
-0.0000000000000107
 11
32.77109610261208
 21
12.44316017256084
 31
-0.0000000000000142
210
1.0
220
1.000000000000000E-16
230
0.0
  0
LINE
  5
1E8
330
555
100
AcDbEntity
  8
0
100
AcDbLine
 10
32.77181317790836
 20
12.44309316703422
 30
-0.0000000000000142
 11
31.94571427633343
 21
12.50994993781315
 31
-0.0000000000000142
210
1.0
220
1.000000000000000E-16
230
0.0
  0
LINE
  5
1E9
330
555
100
AcDbEntity
  8
0
100
AcDbLine
 10
35.22677542800387
 20
12.07981782454926
 30
-0.0000000000000142
 11
34.41282144090057
 21
12.23584946183305
 31
-0.0000000000000071
210
1.0
220
1.000000000000000E-16
230
0.0
  0
LINE
  5
1EA
330
555
100
AcDbEntity
  8
0
100
AcDbLine
 10
34.41407092586198
 20
12.23563813228949
 30
-0.0000000000000071
 11
33.59409374891795
 21
12.35595906685794
 31
-0.0000000000000107
210
1.0
220
1.000000000000000E-16
230
0.0
  0
CIRCLE
  5
1EB
330
555
100
AcDbEntity
  8
0
100
AcDbCircle
 10
34.63290510575223
 20
11.68467790982678
 30
-0.0000000000000426
 40
0.0625
  0
CIRCLE
  5
1EC
330
555
100
AcDbEntity
  8
0
100
AcDbCircle
 10
40.26026251452214
 20
8.742499986092497
 30
-0.0000000000000142
 40
0.0625
  0
LINE
  5
1ED
330
555
100
AcDbEntity
  8
0
100
AcDbLine
 10
38.3669301257037
 20
11.05464789205899
 30
-0.0000000000000142
 11
37.60320183806243
 21
11.37694741550385
 31
-0.0000000000000107
210
1.0
220
1.000000000000000E-16
230
0.0
  0
LINE
  5
1EE
330
555
100
AcDbEntity
  8
0
100
AcDbLine
 10
37.60479351144643
 20
11.3763302542254
 30
-0.0000000000000107
 11
36.82348468491453
 21
11.6531111235437
 31
-0.0000000000000142
210
1.0
220
1.000000000000000E-16
230
0.0
  0
LINE
  5
1EF
330
555
100
AcDbEntity
  8
0
100
AcDbLine
 10
36.82498047572408
 20
11.65262645675952
 30
-0.0000000000000107
 11
36.02986341325586
 21
11.88664111081715
 31
-0.0000000000000071
210
1.0
220
1.000000000000000E-16
230
0.0
  0
LINE
  5
1F0
330
555
100
AcDbEntity
  8
0
100
AcDbLine
 10
39.10684566703169
 20
10.68481152413151
 30
-0.0000000000000142
 11
38.3652415382681
 21
11.0554251544142
 31
-0.0000000000000142
210
1.0
220
1.000000000000000E-16
230
0.0
  0
LINE
  5
1F1
330
555
100
AcDbEntity
  8
0
100
AcDbLine
 10
39.819206549263
 20
10.26433204281751
 30
-0.0000000000000071
 11
39.1050705454723
 21
10.68577734844005
 31
-0.0000000000000142
210
1.0
220
1.000000000000000E-16
230
0.0
  0
CIRCLE
  5
1F2
330
555
100
AcDbEntity
  8
0
100
AcDbCircle
 10
38.30783568964746
 20
10.52544045545705
 30
-0.0000000000000213
 40
0.0625
  0
LINE
  5
1F3
330
555
100
AcDbEntity
  8
0
100
AcDbLine
 10
40.4988426874388
 20
9.792583301434592
 30
-0.0000000000000107
 11
39.81741159182778
 21
10.26548232234307
 31
-0.0000000000000142
210
1.0
220
1.000000000000000E-16
230
0.0
  0
LINE
  5
1F4
330
555
100
AcDbEntity
  8
0
100
AcDbLine
 10
45.58524761666221
 20
12.22981332317204
 30
-0.0000000000000043
 11
44.76109610261207
 21
12.31716017256077
 31
-0.0000000000000043
210
1.0
220
1.000000000000000E-16
230
0.0
  0
LINE
  5
1F5
330
555
100
AcDbEntity
  8
0
100
AcDbLine
 10
45.45933085143938
 20
11.23755786435078
 30
0.0000000000000029
 11
44.66840954481171
 21
11.32138284443101
 31
-0.0000000000000078
210
1.0
220
1.000000000000000E-16
230
0.0
  0
LINE
  5
1F6
330
555
100
AcDbEntity
  8
0
100
AcDbLine
 10
43.10964736559015
 20
12.43340081423264
 30
-0.0000000000000043
 11
42.28144259947141
 21
12.46468126198109
 31
-0.0000000000000078
210
1.0
220
1.000000000000000E-16
230
0.0
  0
LINE
  5
1F7
330
555
100
AcDbEntity
  8
0
100
AcDbLine
 10
43.06057342008499
 20
11.43454129333338
 30
-0.0000000000000114
 11
42.25173175305197
 21
11.46509041661477
 31
-0.0000000000000256
210
1.0
220
1.000000000000000E-16
230
0.0
  0
ARC
  5
1F8
330
555
100
AcDbEntity
  8
0
100
AcDbCircle
 10
40.51026251452213
 20
9.622962781025162
 30
-0.0000000000015378
 40
0.125
100
AcDbArc
 50
0.0
 51
51.2176297373229
  0
LINE
  5
1F9
330
555
100
AcDbEntity
  8
0
100
AcDbLine
 10
42.28189538845025
 20
12.46466770108789
 30
-0.0000000000000114
 11
41.45329194757521
 21
12.48300807196918
 31
-0.0000000000000043
210
1.0
220
1.000000000000000E-16
230
0.0
  0
LINE
  5
1FA
330
555
100
AcDbEntity
  8
0
100
AcDbLine
 10
42.25173175305197
 20
11.46509041661477
 30
-0.0000000000000114
 11
41.43571973455094
 21
11.48315208800618
 31
-0.0000000000000114
210
1.0
220
1.000000000000000E-16
230
0.0
  0
LINE
  5
1FB
330
555
100
AcDbEntity
  8
0
100
AcDbLine
 10
40.63526251452214
 20
12.36719455259818
 30
0.0000000000000007
 11
40.63526251452214
 21
11.61712849010193
 31
0.0000000000000107
210
1.0
220
1.000000000000000E-16
230
0.0
  0
LINE
  5
1FC
330
555
100
AcDbEntity
  8
0
100
AcDbLine
 10
41.43571973455094
 20
11.48315208800618
 30
-0.0000000000000043
 11
40.75860352676875
 21
11.49213949954822
 31
-0.0000000000000043
210
1.0
220
1.000000000000000E-16
230
0.0
  0
ARC
  5
1FD
330
555
100
AcDbEntity
  8
0
100
AcDbCircle
 10
40.76026251452214
 20
11.61712849010193
 30
0.0000000000000013
 40
0.125
100
AcDbArc
 50
180.0
 51
269.2395537020249
  0
LINE
  5
1FE
330
555
100
AcDbEntity
  8
0
100
AcDbLine
 10
41.45354879341927
 20
12.48300352496922
 30
0.00000000000001
 11
40.76192150227552
 21
12.49218354315188
 31
0.000000000000004
210
1.0
220
1.000000000000000E-16
230
0.0
  0
ARC
  5
1FF
330
555
100
AcDbEntity
  8
0
100
AcDbCircle
 10
40.76026251452214
 20
12.36719455259818
 30
-0.0000000000000072
 40
0.125
100
AcDbArc
 50
89.23955370202509
 51
180.0
  0
CIRCLE
  5
200
330
555
100
AcDbEntity
  8
0
100
AcDbCircle
 10
41.22294527489839
 20
11.81150492965235
 30
-0.0000000000000078
 40
0.046875
  0
CIRCLE
  5
201
330
555
100
AcDbEntity
  8
0
100
AcDbCircle
 10
41.22792223815856
 20
12.18647190131347
 30
-0.0000000000000185
 40
0.046875
  0
CIRCLE
  5
202
330
555
100
AcDbEntity
  8
0
100
AcDbCircle
 10
42.22494690787061
 20
12.16635484691027
 30
-0.0000000000000327
 40
0.046875
  0
CIRCLE
  5
203
330
555
100
AcDbEntity
  8
0
100
AcDbCircle
 10
42.71052963225696
 20
11.94812116363082
 30
-0.0000000000000611
 40
0.0625
  0
CIRCLE
  5
204
330
555
100
AcDbEntity
  8
0
100
AcDbCircle
 10
44.20367205022522
 20
12.06178469615893
 30
-0.0000000000000327
 40
0.046875
  0
LINE
  5
205
330
555
100
AcDbEntity
  8
0
100
AcDbLine
 10
44.76181317790834
 20
12.31709316703415
 30
-0.0000000000000043
 11
43.93571427633342
 21
12.38394993781308
 31
-0.0000000000000043
210
1.0
220
1.000000000000000E-16
230
0.0
  0
LINE
  5
206
330
555
100
AcDbEntity
  8
0
100
AcDbLine
 10
44.66840954481171
 20
11.321382844431
 30
-0.0000000000000114
 11
43.86579844677455
 21
11.38633873058918
 31
-0.0000000000000043
210
1.0
220
1.000000000000000E-16
230
0.0
  0
LINE
  5
207
330
555
100
AcDbEntity
  8
0
100
AcDbLine
 10
43.86579844677455
 20
11.38633873058918
 30
-0.0000000000000007
 11
43.06057342008499
 21
11.43454129333339
 31
-0.0000000000000114
210
1.0
220
1.000000000000000E-16
230
0.0
  0
LINE
  5
208
330
555
100
AcDbEntity
  8
0
100
AcDbLine
 10
43.9363207159221
 20
12.38390725132143
 30
-0.0000000000000043
 11
43.10900898314932
 21
12.43343197346268
 31
0.0000000000000029
210
1.0
220
1.000000000000000E-16
230
0.0
  0
CIRCLE
  5
209
330
555
100
AcDbEntity
  8
0
100
AcDbCircle
 10
43.21242074331659
 20
12.12720536811771
 30
-0.0000000000000256
 40
0.046875
  0
CIRCLE
  5
20A
330
555
100
AcDbEntity
  8
0
100
AcDbCircle
 10
45.19162170909242
 20
11.97035397463395
 30
-0.0000000000000291
 40
0.046875
  0
LINE
  5
20B
330
555
100
AcDbEntity
  8
0
100
AcDbLine
 10
48.02126883942024
 20
11.76026550863515
 30
0.0000000000000029
 11
47.2154527548903
 21
11.95410352084333
 31
-0.0000000000000078
210
1.0
220
1.000000000000000E-16
230
0.0
  0
LINE
  5
20C
330
555
100
AcDbEntity
  8
0
100
AcDbLine
 10
48.505869572012
 20
10.57519112442632
 30
-0.0000000000000043
 11
47.76229010061348
 21
10.79403750689928
 31
-0.0000000000000007
210
1.0
220
1.000000000000000E-16
230
0.0
  0
LINE
  5
20D
330
555
100
AcDbEntity
  8
0
100
AcDbLine
 10
47.21677542800386
 20
11.95381782454919
 30
-0.0000000000000043
 11
46.40282144090057
 21
12.10984946183297
 31
0.0000000000000029
210
1.0
220
1.000000000000000E-16
230
0.0
  0
CIRCLE
  5
20E
330
555
100
AcDbEntity
  8
0
100
AcDbCircle
 10
46.62290510575221
 20
11.55867790982672
 30
-0.0000000000000398
 40
0.0625
  0
LINE
  5
20F
330
555
100
AcDbEntity
  8
0
100
AcDbLine
 10
47.00492316420413
 20
10.97622113947276
 30
-0.0000000000000043
 11
46.23663915928239
 21
11.12349802869038
 31
0.00000000000001
210
1.0
220
1.000000000000000E-16
230
0.0
  0
LINE
  5
210
330
555
100
AcDbEntity
  8
0
100
AcDbLine
 10
46.23663915928239
 20
11.12349802869037
 30
0.0000000000000029
 11
45.45933085143938
 21
11.23755786435078
 31
-0.0000000000000043
210
1.0
220
1.000000000000000E-16
230
0.0
  0
LINE
  5
211
330
555
100
AcDbEntity
  8
0
100
AcDbLine
 10
46.40407092586197
 20
12.10963813228941
 30
-0.0000000000000007
 11
45.58409374891794
 21
12.22995906685787
 31
-0.0000000000000043
210
1.0
220
1.000000000000000E-16
230
0.0
  0
CIRCLE
  5
212
330
555
100
AcDbEntity
  8
0
100
AcDbCircle
 10
46.17045052773192
 20
11.8412116686699
 30
-0.0000000000000256
 40
0.046875
  0
CIRCLE
  5
213
330
555
100
AcDbEntity
  8
0
100
AcDbCircle
 10
47.14057131587575
 20
11.66347257564353
 30
-0.0000000000000327
 40
0.046875
  0
LINE
  5
214
330
555
100
AcDbEntity
  8
0
100
AcDbLine
 10
47.76229010061348
 20
10.79403750689928
 30
-0.0000000000000007
 11
47.00492316420413
 21
10.97622113947277
 31
-0.0000000000000078
210
1.0
220
1.000000000000000E-16
230
0.0
  0
CIRCLE
  5
215
330
555
100
AcDbEntity
  8
0
100
AcDbCircle
 10
49.93455796723942
 20
10.78181538466224
 30
-0.000000000000022
 40
0.046875
  0
LINE
  5
216
330
555
100
AcDbEntity
  8
0
100
AcDbLine
 10
49.23231330208864
 20
10.317846371246
 30
-0.0000000000000043
 11
48.505869572012
 21
10.57519112442632
 31
-0.0000000000000114
210
1.0
220
1.000000000000000E-16
230
0.0
  0
LINE
  5
217
330
555
100
AcDbEntity
  8
0
100
AcDbLine
 10
49.93772546821769
 20
10.02015672342928
 30
0.0000000000000029
 11
49.23231330208864
 21
10.317846371246
 31
0.0000000000000064
210
1.0
220
1.000000000000000E-16
230
0.0
  0
LINE
  5
218
330
555
100
AcDbEntity
  8
0
100
AcDbLine
 10
49.59479351144643
 20
11.25033025422532
 30
-0.0000000000000043
 11
48.81348468491452
 21
11.52711112354364
 31
-0.0000000000000043
210
1.0
220
1.000000000000000E-16
230
0.0
  0
LINE
  5
219
330
555
100
AcDbEntity
  8
0
100
AcDbLine
 10
48.81498047572407
 20
11.52662645675945
 30
-0.0000000000000043
 11
48.01986341325586
 21
11.76064111081708
 31
0.0000000000000029
210
1.0
220
1.000000000000000E-16
230
0.0
  0
CIRCLE
  5
21A
330
555
100
AcDbEntity
  8
0
100
AcDbCircle
 10
48.0818769459962
 20
11.43018745478204
 30
-0.0000000000000185
 40
0.046875
  0
CIRCLE
  5
21B
330
555
100
AcDbEntity
  8
0
100
AcDbCircle
 10
49.0196669178761
 20
11.13633287130938
 30
-0.000000000000022
 40
0.046875
  0
LINE
  5
21C
330
555
100
AcDbEntity
  8
0
100
AcDbLine
 10
56.1636922587472
 20
5.258810545875184
 30
0.0000000000000029
 11
55.77286834067487
 21
5.989558017022975
 31
0.0000000000000029
210
1.0
220
1.000000000000000E-16
230
0.0
  0
LINE
  5
21D
330
555
100
AcDbEntity
  8
0
100
AcDbLine
 10
51.87526251452214
 20
8.809778121146104
 30
0.0000000000000243
 11
51.87526251452213
 21
0.1249999860924209
 31
0.0000000000000471
210
1.0
220
1.000000000000000E-16
230
0.0
  0
CIRCLE
  5
21E
330
555
100
AcDbEntity
  8
0
100
AcDbCircle
 10
52.25026251452214
 20
1.521999986092416
 30
-0.0000000002912486
 40
0.046875
  0
CIRCLE
  5
21F
330
555
100
AcDbEntity
  8
0
100
AcDbCircle
 10
52.25026251452214
 20
5.240749986092416
 30
-0.0000000002912415
 40
0.046875
  0
LINE
  5
220
330
555
100
AcDbEntity
  8
0
100
AcDbLine
 10
57.14552501172248
 20
-0.0000000139075915
 30
0.000000000000084
 11
52.00026251452214
 21
-0.0000000139075791
 31
0.0000000000000603
210
4.000000000000000E-16
220
0.9909703095825948
230
-0.134081488378434
  0
ARC
  5
221
330
555
100
AcDbEntity
  8
0
100
AcDbCircle
 10
52.00026251452214
 20
0.1249999860924209
 30
-0.000000000000254
 40
0.125
100
AcDbArc
 50
180.0000000000001
 51
269.9999999999997
  0
CIRCLE
  5
222
330
555
100
AcDbEntity
  8
0
100
AcDbCircle
 10
52.25026251452214
 20
1.178999986092424
 30
-0.0000000000000149
 40
0.0625
  0
CIRCLE
  5
223
330
555
100
AcDbEntity
  8
0
100
AcDbCircle
 10
52.25026251452214
 20
4.897749986092421
 30
-0.0000000000000114
 40
0.0625
  0
LINE
  5
224
330
555
100
AcDbEntity
  8
0
100
AcDbLine
 10
57.13782270106574
 20
2.039095551937406
 30
-0.0000000000000078
 11
57.27052501172249
 21
1.223121487907679
 31
-0.0000000000000043
  0
ARC
  5
225
330
555
100
AcDbEntity
  8
0
100
AcDbCircle
 10
57.14552501172248
 20
0.1249999860924085
 30
-0.000000000000254
 40
0.125
100
AcDbArc
 50
269.9999999999997
 51
0.0000000000006107
  0
LINE
  5
226
330
555
100
AcDbEntity
  8
0
100
AcDbLine
 10
57.27052501172248
 20
1.223121487907682
 30
-0.0000000000000185
 11
57.27052501172247
 21
0.1249999860924067
 31
0.0000000000000951
  0
CIRCLE
  5
227
330
555
100
AcDbEntity
  8
0
100
AcDbCircle
 10
56.91029445230451
 20
1.572353015311616
 30
-0.0000000000000753
 40
0.046875
  0
LINE
  5
228
330
555
100
AcDbEntity
  8
0
100
AcDbLine
 10
56.65875973674467
 20
3.622679323161167
 30
0.0000000000000384
 11
56.01412349116392
 21
3.459986838154327
 31
0.0000000000000313
210
0.9999998332209687
220
-0.0005775448335471
230
0.0
  0
CIRCLE
  5
229
330
555
100
AcDbEntity
  8
0
100
AcDbCircle
 10
56.4118824721077
 20
3.032303972570787
 30
-0.0000000000000114
 40
0.0625
  0
LINE
  5
22A
330
555
100
AcDbEntity
  8
0
100
AcDbLine
 10
56.04716285748054
 20
3.329020384468416
 30
0.0000000000000313
 11
56.53240780401478
 21
3.451551409496062
 31
0.0000000000000242
210
0.9999998332209687
220
-0.0005775448335471
230
0.0
  0
ARC
  5
22B
330
555
100
AcDbEntity
  8
0
100
AcDbCircle
 10
56.03186105534033
 20
3.389618279244237
 30
0.0000000000004079
 40
0.0625
100
AcDbArc
 50
194.0432707305035
 51
284.171718593633
  0
LINE
  5
22C
330
555
100
AcDbEntity
  8
0
100
AcDbLine
 10
55.96878555505893
 20
3.384221088529066
 30
0.0000000000000384
 11
55.97122900870729
 21
3.374452366113451
 31
0.0000000000000384
210
0.9999998332209687
220
-0.0005775448335471
230
0.0
  0
ARC
  5
22D
330
555
100
AcDbEntity
  8
0
100
AcDbCircle
 10
56.02941760169196
 20
3.399387001659848
 30
0.0000000000001343
 40
0.0625
100
AcDbArc
 50
104.1644462312026
 51
194.0432707305051
  0
LINE
  5
22E
330
555
100
AcDbEntity
  8
0
100
AcDbLine
 10
56.98104126569288
 20
2.761622090667067
 30
-0.0000000000000149
 11
57.13810583735805
 21
2.037602590355645
 31
-0.0000000000000114
  0
CIRCLE
  5
22F
330
555
100
AcDbEntity
  8
0
100
AcDbCircle
 10
56.72314439572545
 20
2.537731992263508
 30
-0.0000000000000327
 40
0.046875
  0
ARC
  5
230
330
555
100
AcDbEntity
  8
0
100
AcDbCircle
 10
56.87222440517671
 20
2.865256765442949
 30
0.0000000000006068
 40
0.0625
100
AcDbArc
 50
194.0011384060319
 51
284.122716597291
  0
LINE
  5
231
330
555
100
AcDbEntity
  8
0
100
AcDbLine
 10
56.88747437560921
 20
2.804645806023002
 30
0.0000000000000348
 11
56.90471198240503
 21
2.808982859857472
 31
0.0000000000000348
210
0.9999998332209687
220
-0.0005775448335471
230
0.0
  0
ARC
  5
232
330
555
100
AcDbEntity
  8
0
100
AcDbCircle
 10
56.91996195283749
 20
2.748371900437496
 30
-0.0000000000032905
 40
0.0625
100
AcDbArc
 50
12.23976160466858
 51
104.1227165972868
  0
LINE
  5
233
330
555
100
AcDbEntity
  8
0
100
AcDbLine
 10
56.6842977732145
 20
3.360598266731048
 30
0.0000000000000277
 11
56.81158122271704
 21
2.850135442049634
 31
0.0000000000000313
210
0.9999998332209687
220
-0.0005775448335471
230
0.0
  0
ARC
  5
234
330
555
100
AcDbEntity
  8
0
100
AcDbCircle
 10
56.56301140829518
 20
3.330355619944404
 30
-0.0000000000006544
 40
0.125
100
AcDbArc
 50
14.00113840603208
 51
104.1717185936328
  0
LINE
  5
235
330
555
100
AcDbEntity
  8
0
100
AcDbLine
 10
56.49709921439168
 20
4.50261789351862
 30
0.0000000000000029
 11
56.16273048395871
 21
5.26078520250823
 31
0.0000000000000029
210
1.0
220
1.000000000000000E-16
230
0.0
  0
CIRCLE
  5
236
330
555
100
AcDbEntity
  8
0
100
AcDbCircle
 10
56.39823505840572
 20
3.874070377254041
 30
-0.0000000000000433
 40
0.046875
  0
CIRCLE
  5
237
330
555
100
AcDbEntity
  8
0
100
AcDbCircle
 10
56.04642033772773
 20
4.782299167454762
 30
-0.000000000000054
 40
0.046875
  0
LINE
  5
238
330
555
100
AcDbEntity
  8
0
100
AcDbLine
 10
56.74625352879907
 20
3.784886778091833
 30
-0.0000000000000007
 11
56.49623831357198
 21
4.50480623088877
 31
0.0000000000000029
210
1.0
220
1.000000000000000E-16
230
0.0
  0
ARC
  5
239
330
555
100
AcDbEntity
  8
0
100
AcDbCircle
 10
56.62817151568859
 20
3.743878996150157
 30
-0.0000000000080654
 40
0.125
100
AcDbArc
 50
284.164446231202
 51
19.15120441105892
  0
CIRCLE
  5
23A
330
555
100
AcDbEntity
  8
0
100
AcDbCircle
 10
52.25026251452214
 20
8.959499986092428
 30
-0.0000000002912451
 40
0.046875
  0
CIRCLE
  5
23B
330
555
100
AcDbEntity
  8
0
100
AcDbCircle
 10
50.44125530364013
 20
10.71101679332974
 30
-0.0000000002912628
 40
0.046875
  0
LINE
  5
23C
330
555
100
AcDbEntity
  8
0
100
AcDbLine
 10
55.33293163121854
 20
6.687164033562812
 30
0.0000000000000029
 11
54.84394306327947
 21
7.35650007786957
 31
0.0000000000000064
210
1.0
220
1.000000000000000E-16
230
0.0
  0
LINE
  5
23D
330
555
100
AcDbEntity
  8
0
100
AcDbLine
 10
51.82152975553423
 20
8.912471744894251
 30
0.0000000000000184
 11
51.26836805770299
 21
9.296354469051233
 31
-0.0000000000000043
210
1.0
220
1.000000000000000E-16
230
0.0
  0
LINE
  5
23E
330
555
100
AcDbEntity
  8
0
100
AcDbLine
 10
53.74292783639981
 20
8.5879026689616
 30
-0.0000000000000007
 11
53.13241710003335
 21
9.149453398654051
 31
0.0000000000000029
210
1.0
220
1.000000000000000E-16
230
0.0
  0
ARC
  5
23F
330
555
100
AcDbEntity
  8
0
100
AcDbCircle
 10
51.75026251452214
 20
8.809778121146104
 30
-0.0000000000004554
 40
0.125
100
AcDbArc
 50
359.9999999999998
 51
55.2401555411311
  0
CIRCLE
  5
240
330
555
100
AcDbEntity
  8
0
100
AcDbCircle
 10
52.25026251452214
 20
8.616499986092428
 30
-0.0000000000000114
 40
0.0625
  0
CIRCLE
  5
241
330
555
100
AcDbEntity
  8
0
100
AcDbCircle
 10
55.10282207962896
 20
6.490453202894111
 30
-0.0000000000000504
 40
0.046875
  0
LINE
  5
242
330
555
100
AcDbEntity
  8
0
100
AcDbLine
 10
54.31413395903661
 20
7.989288865831123
 30
0.0000000000000029
 11
53.74158093011078
 21
8.589225020272634
 31
-0.0000000000000043
210
1.0
220
1.000000000000000E-16
230
0.0
  0
CIRCLE
  5
243
330
555
100
AcDbEntity
  8
0
100
AcDbCircle
 10
53.89013754070088
 20
7.999759674081609
 30
-0.0000000000000398
 40
0.046875
  0
CIRCLE
  5
244
330
555
100
AcDbEntity
  8
0
100
AcDbCircle
 10
53.19279794618161
 20
8.68698688177449
 30
-0.0000000000000327
 40
0.046875
  0
LINE
  5
245
330
555
100
AcDbEntity
  8
0
100
AcDbLine
 10
54.84512430693279
 20
7.354990552506729
 30
0.0000000000000029
 11
54.31287778971285
 21
7.990693812744222
 31
0.0000000000000029
210
1.0
220
1.000000000000000E-16
230
0.0
  0
CIRCLE
  5
246
330
555
100
AcDbEntity
  8
0
100
AcDbCircle
 10
54.53306408810277
 20
7.261166692340172
 30
-0.0000000000000398
 40
0.046875
  0
LINE
  5
247
330
555
100
AcDbEntity
  8
0
100
AcDbLine
 10
53.13388492781964
 20
9.148191082188369
 30
-0.0000000000000007
 11
52.48721213188197
 21
9.667801830912461
 31
-0.0000000000000043
210
1.0
220
1.000000000000000E-16
230
0.0
  0
LINE
  5
248
330
555
100
AcDbEntity
  8
0
100
AcDbLine
 10
51.09684566703171
 20
10.55881152413143
 30
-0.0000000000000043
 11
50.35524153826809
 21
10.92942515441413
 31
-0.0000000000000043
210
1.0
220
1.000000000000000E-16
230
0.0
  0
LINE
  5
249
330
555
100
AcDbEntity
  8
0
100
AcDbLine
 10
51.809206549263
 20
10.13833204281744
 30
-0.0000000000000007
 11
51.09507054547229
 21
10.55977734843998
 31
-0.0000000000000043
210
1.0
220
1.000000000000000E-16
230
0.0
  0
LINE
  5
24A
330
555
100
AcDbEntity
  8
0
100
AcDbLine
 10
51.268368057703
 20
9.296354469051227
 30
-0.0000000000000043
 11
50.61772341698738
 21
9.680330529637091
 31
-0.0000000000000114
210
1.0
220
1.000000000000000E-16
230
0.0
  0
CIRCLE
  5
24B
330
555
100
AcDbEntity
  8
0
100
AcDbCircle
 10
50.81972879537081
 20
10.36248239373932
 30
-0.0000000000000398
 40
0.046875
  0
CIRCLE
  5
24C
330
555
100
AcDbEntity
  8
0
100
AcDbCircle
 10
51.64811744517217
 20
9.885473897024848
 30
-0.0000000000000256
 40
0.046875
  0
LINE
  5
24D
330
555
100
AcDbEntity
  8
0
100
AcDbLine
 10
52.48884268743882
 20
9.666583301434516
 30
-0.0000000000000078
 11
51.8074115918278
 21
10.139482322343
 31
-0.0000000000000043
210
1.0
220
1.000000000000000E-16
230
0.0
  0
CIRCLE
  5
24E
330
555
100
AcDbEntity
  8
0
100
AcDbCircle
 10
52.44456431126906
 20
9.317864451890879
 30
-0.0000000000000362
 40
0.046875
  0
LINE
  5
24F
330
555
100
AcDbEntity
  8
0
100
AcDbLine
 10
55.77391097434603
 20
5.987765719935687
 30
0.0000000000000029
 11
55.33181861597892
 21
6.688802188244731
 31
0.0000000000000029
210
1.0
220
1.000000000000000E-16
230
0.0
  0
CIRCLE
  5
250
330
555
100
AcDbEntity
  8
0
100
AcDbCircle
 10
55.61168235070258
 20
5.655883808508519
 30
-0.0000000000000504
 40
0.046875
  0
CIRCLE
  5
258
330
555
100
AcDbEntity
  8
0
100
AcDbCircle
 10
42.69648405143889
 20
11.60540886204318
 30
0.0000000002911477
 40
0.046875
  0
CIRCLE
  5
259
330
555
100
AcDbEntity
  8
0
100
AcDbCircle
 10
46.56570474630107
 20
11.22048104573915
 30
0.0000000002911691
 40
0.046875
  0
CIRCLE
  5
25A
330
555
100
AcDbEntity
  8
0
100
AcDbCircle
 10
50.15441607565477
 20
10.08786411758424
 30
0.0000000002911833
 40
0.046875
  0
CIRCLE
  5
25F
330
555
100
AcDbEntity
  8
0
100
AcDbCircle
 10
52.25026251452214
 20
0.8359999860924106
 30
0.0000000002911975
 40
0.046875
  0
CIRCLE
  5
260
330
555
100
AcDbEntity
  8
0
100
AcDbCircle
 10
52.25026251452213
 20
4.554749986092414
 30
0.0000000002912046
 40
0.046875
  0
CIRCLE
  5
261
330
555
100
AcDbEntity
  8
0
100
AcDbCircle
 10
52.25026251452214
 20
8.273499986092421
 30
0.000000000291201
 40
0.046875
  0
ENDSEC
  0
SECTION
  2
OBJECTS
  0
DICTIONARY
  5
545
330
0
100
AcDbDictionary
281
     1
  3
ACAD_DETAILVIEWSTYLE
350
5B8
  3
ACAD_GROUP
350
546
  3
ACAD_IMAGE_VARS
350
5B2
  3
ACAD_LAYOUT
350
552
  3
ACAD_MATERIAL
350
55B
  3
ACAD_MLEADERSTYLE
350
5AE
  3
ACAD_MLINESTYLE
350
54F
  3
ACAD_PLOTSETTINGS
350
551
  3
ACAD_PLOTSTYLENAME
350
547
  3
ACAD_SCALELIST
350
571
  3
ACAD_SECTIONVIEWSTYLE
350
5B9
  3
ACAD_TABLESTYLE
350
5AC
  3
ACAD_VISUALSTYLE
350
593
  3
AcDbVariableDictionary
350
5B3
  3
ACDB_RECOMPOSE_DATA
350
5BC
  3
APPDATA
350
5B0
  0
SUN
  5
5B1
330
558
100
AcDbSun
 90
        1
290
     0
 63
     7
421
 16777215
 40
1.0
291
     1
 91
  2455826
 92
 54000000
292
     0
 70
     2
 71
   256
280
     1
  0
DICTIONARY
  5
5B8
102
{ACAD_REACTORS
330
545
102
}
330
545
100
AcDbDictionary
281
     1
  0
DICTIONARY
  5
546
102
{ACAD_REACTORS
330
545
102
}
330
545
100
AcDbDictionary
281
     1
  0
RASTERVARIABLES
  5
5B2
102
{ACAD_REACTORS
330
545
102
}
330
545
100
AcDbRasterVariables
 90
        0
 70
     1
 71
     1
 72
     0
  0
DICTIONARY
  5
552
102
{ACAD_REACTORS
330
545
102
}
330
545
100
AcDbDictionary
281
     1
  3
Model
350
556
  3
Sheet 1
350
554
  0
DICTIONARY
  5
55B
102
{ACAD_REACTORS
330
545
102
}
330
545
100
AcDbDictionary
281
     1
  3
ByBlock
350
55D
  3
ByLayer
350
55C
  3
Global
350
55E
  0
DICTIONARY
  5
5AE
102
{ACAD_REACTORS
330
545
102
}
330
545
100
AcDbDictionary
281
     1
  3
Standard
350
5AF
  0
DICTIONARY
  5
54F
102
{ACAD_REACTORS
330
545
102
}
330
545
100
AcDbDictionary
281
     1
  3
Standard
350
550
  0
DICTIONARY
  5
551
102
{ACAD_REACTORS
330
545
102
}
330
545
100
AcDbDictionary
281
     1
  0
ACDBDICTIONARYWDFLT
  5
547
102
{ACAD_REACTORS
330
545
102
}
330
545
100
AcDbDictionary
281
     1
  3
Normal
350
548
100
AcDbDictionaryWithDefault
340
548
  0
DICTIONARY
  5
571
102
{ACAD_REACTORS
330
545
102
}
330
545
100
AcDbDictionary
281
     1
  3
A0
350
572
  3
A1
350
573
  3
A2
350
574
  3
A3
350
575
  3
A4
350
576
  3
A5
350
577
  3
A6
350
578
  3
A7
350
579
  3
A8
350
57A
  3
A9
350
57B
  3
B0
350
57C
  3
B1
350
57D
  3
B2
350
57E
  3
B3
350
57F
  3
B4
350
580
  3
B5
350
581
  3
B6
350
582
  3
B7
350
583
  3
B8
350
584
  3
B9
350
585
  3
C0
350
586
  3
C1
350
587
  3
C2
350
588
  3
C3
350
589
  3
C4
350
58A
  3
C5
350
58B
  3
C6
350
58C
  3
C7
350
58D
  3
C8
350
58E
  3
C9
350
58F
  3
D0
350
590
  3
D1
350
591
  3
D2
350
592
  0
DICTIONARY
  5
5B9
102
{ACAD_REACTORS
330
545
102
}
330
545
100
AcDbDictionary
281
     1
  0
DICTIONARY
  5
5AC
102
{ACAD_REACTORS
330
545
102
}
330
545
100
AcDbDictionary
281
     1
  3
Standard
350
5AD
  0
DICTIONARY
  5
593
102
{ACAD_REACTORS
330
545
102
}
330
545
100
AcDbDictionary
281
     1
  3
2dWireframe
350
598
  3
Basic
350
59B
  3
Brighten
350
59F
  3
ColorChange
350
5A3
  3
Conceptual
350
59D
  3
Dim
350
59E
  3
EdgeColorOff
350
5A6
  3
Facepattern
350
5A2
  3
Flat
350
594
  3
FlatWithEdges
350
595
  3
Gouraud
350
596
  3
GouraudWithEdges
350
597
  3
Hidden
350
59A
  3
JitterOff
350
5A4
  3
Linepattern
350
5A1
  3
OverhangOff
350
5A5
  3
Realistic
350
59C
  3
Shaded
350
5AB
  3
Shaded with edges
350
5AA
  3
Shades of Gray
350
5A7
  3
Sketchy
350
5A8
  3
Thicken
350
5A0
  3
Wireframe
350
599
  3
X-Ray
350
5A9
  0
DICTIONARY
  5
5B3
102
{ACAD_REACTORS
330
545
102
}
330
545
100
AcDbDictionary
281
     1
  3
CANNOSCALE
350
5B4
  3
CMLEADERSTYLE
350
5B6
  3
CTABLESTYLE
350
5B5
  3
MSLTSCALE
350
5B7
  0
XRECORD
  5
5BC
102
{ACAD_REACTORS
330
545
102
}
330
545
100
AcDbXrecord
280
     1
 90
        1
330
5AD
  0
DICTIONARY
  5
5B0
102
{ACAD_REACTORS
330
545
102
}
330
545
100
AcDbDictionary
281
     1
  0
LAYOUT
  5
556
102
{ACAD_REACTORS
330
552
102
}
330
552
100
AcDbPlotSettings
  1

  2
none_device
  4
na-letter
  6

 40
6.35
 41
6.35
 42
6.35
 43
14.11111111111111
 44
215.9
 45
279.4
 46
0.0
 47
0.0
 48
0.0
 49
0.0
140
0.0
141
0.0
142
1.0
143
1.0
 70
  1712
 72
     0
 73
     0
 74
     0
  7

 75
     0
 76
     0
 77
     2
 78
   300
147
1.0
148
0.0
149
0.0
100
AcDbLayout
  1
Model
 70
     1
 71
     0
 10
0.0
 20
0.0
 11
12.0
 21
9.0
 12
0.0
 22
0.0
 32
0.0
 14
0.0000000173217956
 24
-0.0000000139075915
 34
-0.00000000029872
 15
57.27052501172249
 25
12.61999742760747
 35
0.0000000002912046
146
0.0
 13
0.0
 23
0.0
 33
0.0
 16
1.0
 26
0.0
 36
0.0
 17
0.0
 27
1.0
 37
0.0
 76
     0
330
555
331
558
  0
LAYOUT
  5
554
102
{ACAD_REACTORS
330
552
102
}
330
552
100
AcDbPlotSettings
  1

  2
none_device
  4

  6

 40
0.0
 41
0.0
 42
0.0
 43
0.0
 44
0.0
 45
0.0
 46
0.0
 47
0.0
 48
0.0
 49
0.0
140
0.0
141
0.0
142
1.0
143
1.0
 70
   688
 72
     0
 73
     0
 74
     5
  7

 75
    16
 76
     0
 77
     2
 78
   300
147
1.0
148
0.0
149
0.0
100
AcDbLayout
  1
Sheet 1
 70
     1
 71
     1
 10
0.0
 20
0.0
 11
0.0
 21
0.0
 12
0.0
 22
0.0
 32
0.0
 14
1.000000000000000E+20
 24
1.000000000000000E+20
 34
1.000000000000000E+20
 15
-1.000000000000000E+20
 25
-1.000000000000000E+20
 35
-1.000000000000000E+20
146
0.0
 13
0.0
 23
0.0
 33
0.0
 16
1.0
 26
0.0
 36
0.0
 17
0.0
 27
1.0
 37
0.0
 76
     0
330
553
  0
MATERIAL
  5
55D
102
{ACAD_REACTORS
330
55B
102
}
330
55B
100
AcDbMaterial
  1
ByBlock
 72
     1
 94
      127
  0
MATERIAL
  5
55C
102
{ACAD_REACTORS
330
55B
102
}
330
55B
100
AcDbMaterial
  1
ByLayer
 72
     1
 94
      127
  0
MATERIAL
  5
55E
102
{ACAD_REACTORS
330
55B
102
}
330
55B
100
AcDbMaterial
  1
Global
 72
     1
 94
      127
  0
MLEADERSTYLE
  5
5AF
102
{ACAD_REACTORS
330
5AE
102
}
330
5AE
100
AcDbMLeaderStyle
179
     2
170
     2
171
     1
172
     0
 90
        2
 40
0.0
 41
0.0
173
     1
 91
-1056964608
340
54C
 92
       -2
290
     1
 42
0.09
291
     1
 43
0.36
  3
Standard
341
0
 44
0.18
300

342
54A
174
     1
178
     1
175
     1
176
     0
 93
-1056964608
 45
0.18
292
     0
297
     0
 46
0.18
343
0
 94
-1056964608
 47
1.0
 49
1.0
140
1.0
293
     1
141
0.0
294
     1
177
     0
142
1.0
295
     0
296
     0
143
0.125
271
     0
272
     9
273
     9
298
     0
  0
MLINESTYLE
  5
550
102
{ACAD_REACTORS
330
54F
102
}
330
54F
100
AcDbMlineStyle
  2
Standard
 70
     0
  3

 62
   256
 51
90.0
 52
90.0
 71
     2
 49
0.5
 62
   256
  6
BYLAYER
 49
-0.5
 62
   256
  6
BYLAYER
  0
ACDBPLACEHOLDER
  5
548
102
{ACAD_REACTORS
330
547
102
}
330
547
  0
SCALE
  5
572
102
{ACAD_REACTORS
330
571
102
}
330
571
100
AcDbScale
 70
     0
300
1:1
140
1.0
141
1.0
290
     1
  0
SCALE
  5
573
102
{ACAD_REACTORS
330
571
102
}
330
571
100
AcDbScale
 70
     0
300
1:2
140
1.0
141
2.0
290
     0
  0
SCALE
  5
574
102
{ACAD_REACTORS
330
571
102
}
330
571
100
AcDbScale
 70
     0
300
1:4
140
1.0
141
4.0
290
     0
  0
SCALE
  5
575
102
{ACAD_REACTORS
330
571
102
}
330
571
100
AcDbScale
 70
     0
300
1:5
140
1.0
141
5.0
290
     0
  0
SCALE
  5
576
102
{ACAD_REACTORS
330
571
102
}
330
571
100
AcDbScale
 70
     0
300
1:8
140
1.0
141
8.0
290
     0
  0
SCALE
  5
577
102
{ACAD_REACTORS
330
571
102
}
330
571
100
AcDbScale
 70
     0
300
1:10
140
1.0
141
10.0
290
     0
  0
SCALE
  5
578
102
{ACAD_REACTORS
330
571
102
}
330
571
100
AcDbScale
 70
     0
300
1:16
140
1.0
141
16.0
290
     0
  0
SCALE
  5
579
102
{ACAD_REACTORS
330
571
102
}
330
571
100
AcDbScale
 70
     0
300
1:20
140
1.0
141
20.0
290
     0
  0
SCALE
  5
57A
102
{ACAD_REACTORS
330
571
102
}
330
571
100
AcDbScale
 70
     0
300
1:30
140
1.0
141
30.0
290
     0
  0
SCALE
  5
57B
102
{ACAD_REACTORS
330
571
102
}
330
571
100
AcDbScale
 70
     0
300
1:40
140
1.0
141
40.0
290
     0
  0
SCALE
  5
57C
102
{ACAD_REACTORS
330
571
102
}
330
571
100
AcDbScale
 70
     0
300
1:50
140
1.0
141
50.0
290
     0
  0
SCALE
  5
57D
102
{ACAD_REACTORS
330
571
102
}
330
571
100
AcDbScale
 70
     0
300
1:100
140
1.0
141
100.0
290
     0
  0
SCALE
  5
57E
102
{ACAD_REACTORS
330
571
102
}
330
571
100
AcDbScale
 70
     0
300
2:1
140
2.0
141
1.0
290
     0
  0
SCALE
  5
57F
102
{ACAD_REACTORS
330
571
102
}
330
571
100
AcDbScale
 70
     0
300
4:1
140
4.0
141
1.0
290
     0
  0
SCALE
  5
580
102
{ACAD_REACTORS
330
571
102
}
330
571
100
AcDbScale
 70
     0
300
8:1
140
8.0
141
1.0
290
     0
  0
SCALE
  5
581
102
{ACAD_REACTORS
330
571
102
}
330
571
100
AcDbScale
 70
     0
300
10:1
140
10.0
141
1.0
290
     0
  0
SCALE
  5
582
102
{ACAD_REACTORS
330
571
102
}
330
571
100
AcDbScale
 70
     0
300
100:1
140
100.0
141
1.0
290
     0
  0
SCALE
  5
583
102
{ACAD_REACTORS
330
571
102
}
330
571
100
AcDbScale
 70
     0
300
1/128" = 1'-0"
140
0.0078125
141
12.0
290
     0
  0
SCALE
  5
584
102
{ACAD_REACTORS
330
571
102
}
330
571
100
AcDbScale
 70
     0
300
1/64" = 1'-0"
140
0.015625
141
12.0
290
     0
  0
SCALE
  5
585
102
{ACAD_REACTORS
330
571
102
}
330
571
100
AcDbScale
 70
     0
300
1/32" = 1'-0"
140
0.03125
141
12.0
290
     0
  0
SCALE
  5
586
102
{ACAD_REACTORS
330
571
102
}
330
571
100
AcDbScale
 70
     0
300
1/16" = 1'-0"
140
0.0625
141
12.0
290
     0
  0
SCALE
  5
587
102
{ACAD_REACTORS
330
571
102
}
330
571
100
AcDbScale
 70
     0
300
3/32" = 1'-0"
140
0.09375
141
12.0
290
     0
  0
SCALE
  5
588
102
{ACAD_REACTORS
330
571
102
}
330
571
100
AcDbScale
 70
     0
300
1/8" = 1'-0"
140
0.125
141
12.0
290
     0
  0
SCALE
  5
589
102
{ACAD_REACTORS
330
571
102
}
330
571
100
AcDbScale
 70
     0
300
3/16" = 1'-0"
140
0.1875
141
12.0
290
     0
  0
SCALE
  5
58A
102
{ACAD_REACTORS
330
571
102
}
330
571
100
AcDbScale
 70
     0
300
1/4" = 1'-0"
140
0.25
141
12.0
290
     0
  0
SCALE
  5
58B
102
{ACAD_REACTORS
330
571
102
}
330
571
100
AcDbScale
 70
     0
300
3/8" = 1'-0"
140
0.375
141
12.0
290
     0
  0
SCALE
  5
58C
102
{ACAD_REACTORS
330
571
102
}
330
571
100
AcDbScale
 70
     0
300
1/2" = 1'-0"
140
0.5
141
12.0
290
     0
  0
SCALE
  5
58D
102
{ACAD_REACTORS
330
571
102
}
330
571
100
AcDbScale
 70
     0
300
3/4" = 1'-0"
140
0.75
141
12.0
290
     0
  0
SCALE
  5
58E
102
{ACAD_REACTORS
330
571
102
}
330
571
100
AcDbScale
 70
     0
300
1" = 1'-0"
140
1.0
141
12.0
290
     0
  0
SCALE
  5
58F
102
{ACAD_REACTORS
330
571
102
}
330
571
100
AcDbScale
 70
     0
300
1-1/2" = 1'-0"
140
1.5
141
12.0
290
     0
  0
SCALE
  5
590
102
{ACAD_REACTORS
330
571
102
}
330
571
100
AcDbScale
 70
     0
300
3" = 1'-0"
140
3.0
141
12.0
290
     0
  0
SCALE
  5
591
102
{ACAD_REACTORS
330
571
102
}
330
571
100
AcDbScale
 70
     0
300
6" = 1'-0"
140
6.0
141
12.0
290
     0
  0
SCALE
  5
592
102
{ACAD_REACTORS
330
571
102
}
330
571
100
AcDbScale
 70
     0
300
1'-0" = 1'-0"
140
12.0
141
12.0
290
     0
  0
TABLESTYLE
  5
5AD
102
{ACAD_REACTORS
330
5AC
102
}
102
{ACAD_XDICTIONARY
360
5BA
102
}
330
5AC
100
AcDbTableStyle
  3
Standard
 70
     0
 71
     0
 40
0.06
 41
0.06
280
     0
281
     0
  7
STANDARD
140
0.18
170
     2
 62
     0
 63
   257
283
     0
 90
        4
 91
        0
  1

274
    -2
284
     1
 64
     0
275
    -2
285
     1
 65
     0
276
    -2
286
     1
 66
     0
277
    -2
287
     1
 67
     0
278
    -2
288
     1
 68
     0
279
    -2
289
     1
 69
     0
  7
STANDARD
140
0.25
170
     5
 62
     0
 63
   257
283
     0
 90
        4
 91
        0
  1

274
    -2
284
     1
 64
     0
275
    -2
285
     1
 65
     0
276
    -2
286
     1
 66
     0
277
    -2
287
     1
 67
     0
278
    -2
288
     1
 68
     0
279
    -2
289
     1
 69
     0
  7
STANDARD
140
0.18
170
     5
 62
     0
 63
   257
283
     0
 90
        4
 91
        0
  1

274
    -2
284
     1
 64
     0
275
    -2
285
     1
 65
     0
276
    -2
286
     1
 66
     0
277
    -2
287
     1
 67
     0
278
    -2
288
     1
 68
     0
279
    -2
289
     1
 69
     0
  0
VISUALSTYLE
  5
598
102
{ACAD_REACTORS
330
593
102
}
330
593
100
AcDbVisualStyle
  2
2dWireframe
 70
     4
177
     3
291
     0
 70
    58
 90
        0
176
     1
 90
        2
176
     1
 90
        0
176
     1
 90
        0
176
     1
 40
0.6
176
     1
 40
30.0
176
     1
 62
     7
420
 16777215
176
     1
 90
        1
176
     1
 90
        4
176
     1
 62
     7
176
     1
 62
   257
176
     1
 90
        1
176
     1
 90
        1
176
     1
 40
1.0
176
     1
 90
        0
176
     1
 62
   257
176
     1
 40
1.0
176
     1
 90
        1
176
     1
 90
        6
176
     1
 90
        2
176
     1
 62
     7
176
     1
 90
        5
176
     1
 90
        0
176
     1
 90
        0
176
     1
290
     0
176
     1
 90
        1
176
     1
 40
0.0
176
     1
 90
        0
176
     1
290
     1
176
     1
290
     1
176
     1
290
     0
176
     1
290
     0
176
     1
290
     0
176
     1
290
     0
176
     1
290
     0
176
     1
290
     0
176
     1
290
     0
176
     1
 90
       50
176
     1
 40
0.0
176
     1
 40
1.0
176
     1
 90
        0
176
     1
 62
   178
420
        0
176
     1
 90
       50
176
     1
 90
        3
176
     1
 62
     5
420
      255
176
     1
290
     0
176
     1
 90
       50
176
     1
 90
       50
176
     1
 90
       50
176
     1
290
     0
176
     1
 90
       50
176
     1
 62
   256
176
     0
 40
1.0
176
     0
 90
        2
176
     1
  1
strokes_ogs.tif
176
     1
290
     0
176
     1
 40
1.0
176
     1
 40
1.0
176
     1
  0
VISUALSTYLE
  5
59B
102
{ACAD_REACTORS
330
593
102
}
330
593
100
AcDbVisualStyle
  2
Basic
 70
     7
177
     3
291
     1
 70
    58
 90
        1
176
     1
 90
        0
176
     1
 90
        1
176
     1
 90
        0
176
     1
 40
0.6
176
     1
 40
30.0
176
     1
 62
     7
420
 16777215
176
     1
 90
        0
176
     1
 90
        4
176
     1
 62
     7
176
     1
 62
   257
176
     1
 90
        1
176
     1
 90
        1
176
     1
 40
1.0
176
     1
 90
        8
176
     1
 62
     7
176
     1
 40
1.0
176
     1
 90
        1
176
     1
 90
        6
176
     1
 90
        2
176
     1
 62
     7
176
     1
 90
        5
176
     1
 90
        0
176
     1
 90
        0
176
     1
290
     0
176
     1
 90
        1
176
     1
 40
0.0
176
     1
 90
        0
176
     1
290
     0
176
     1
290
     1
176
     1
290
     1
176
     1
290
     0
176
     1
290
     0
176
     1
290
     0
176
     1
290
     0
176
     1
290
     0
176
     1
290
     0
176
     1
 90
       50
176
     1
 40
0.0
176
     1
 40
1.0
176
     1
 90
        0
176
     1
 62
   178
420
        0
176
     1
 90
       50
176
     1
 90
        3
176
     1
 62
     5
420
      255
176
     1
290
     0
176
     1
 90
       50
176
     1
 90
       50
176
     1
 90
       50
176
     1
290
     0
176
     1
 90
       50
176
     1
 62
   256
176
     0
 40
1.0
176
     0
 90
        2
176
     1
  1
strokes_ogs.tif
176
     1
290
     0
176
     1
 40
1.0
176
     1
 40
1.0
176
     1
  0
VISUALSTYLE
  5
59F
102
{ACAD_REACTORS
330
593
102
}
330
593
100
AcDbVisualStyle
  2
Brighten
 70
    12
177
     3
291
     1
 70
    58
 90
        2
176
     1
 90
        2
176
     1
 90
        0
176
     1
 90
        0
176
     1
 40
0.6
176
     1
 40
30.0
176
     1
 62
     7
420
 16777215
176
     1
 90
        1
176
     1
 90
        4
176
     1
 62
     7
176
     1
 62
   257
176
     1
 90
        1
176
     1
 90
        1
176
     1
 40
1.0
176
     1
 90
        8
176
     1
 62
     7
176
     1
 40
1.0
176
     1
 90
        1
176
     1
 90
        6
176
     1
 90
        2
176
     1
 62
     7
176
     1
 90
        5
176
     1
 90
        0
176
     1
 90
        0
176
     1
290
     0
176
     1
 90
        1
176
     1
 40
50.0
176
     1
 90
        0
176
     1
290
     0
176
     1
290
     1
176
     1
290
     1
176
     1
290
     0
176
     1
290
     0
176
     1
290
     0
176
     1
290
     0
176
     1
290
     0
176
     1
290
     0
176
     1
 90
       50
176
     1
 40
0.0
176
     1
 40
1.0
176
     1
 90
        0
176
     1
 62
   178
420
        0
176
     1
 90
       50
176
     1
 90
        3
176
     1
 62
     5
420
      255
176
     1
290
     0
176
     1
 90
       50
176
     1
 90
       50
176
     1
 90
       50
176
     1
290
     0
176
     1
 90
       50
176
     1
 62
   256
176
     0
 40
1.0
176
     0
 90
        2
176
     1
  1
strokes_ogs.tif
176
     1
290
     0
176
     1
 40
1.0
176
     1
 40
1.0
176
     1
  0
VISUALSTYLE
  5
5A3
102
{ACAD_REACTORS
330
593
102
}
330
593
100
AcDbVisualStyle
  2
ColorChange
 70
    16
177
     3
291
     1
 70
    58
 90
        2
176
     1
 90
        2
176
     1
 90
        3
176
     1
 90
        0
176
     1
 40
0.6
176
     1
 40
30.0
176
     1
 62
     8
420
  8421504
176
     1
 90
        1
176
     1
 90
        4
176
     1
 62
     7
176
     1
 62
   257
176
     1
 90
        1
176
     1
 90
        1
176
     1
 40
1.0
176
     1
 90
        8
176
     1
 62
     8
420
  8421504
176
     1
 40
1.0
176
     1
 90
        1
176
     1
 90
        6
176
     1
 90
        2
176
     1
 62
     7
176
     1
 90
        5
176
     1
 90
        0
176
     1
 90
        0
176
     1
290
     0
176
     1
 90
        1
176
     1
 40
0.0
176
     1
 90
        0
176
     1
290
     0
176
     1
290
     1
176
     1
290
     1
176
     1
290
     0
176
     1
290
     0
176
     1
290
     0
176
     1
290
     0
176
     1
290
     0
176
     1
290
     0
176
     1
 90
       50
176
     1
 40
0.0
176
     1
 40
1.0
176
     1
 90
        0
176
     1
 62
   178
420
        0
176
     1
 90
       50
176
     1
 90
        3
176
     1
 62
     5
420
      255
176
     1
290
     0
176
     1
 90
       50
176
     1
 90
       50
176
     1
 90
       50
176
     1
290
     0
176
     1
 90
       50
176
     1
 62
   256
176
     0
 40
1.0
176
     0
 90
        2
176
     1
  1
strokes_ogs.tif
176
     1
290
     0
176
     1
 40
1.0
176
     1
 40
1.0
176
     1
  0
VISUALSTYLE
  5
59D
102
{ACAD_REACTORS
330
593
102
}
330
593
100
AcDbVisualStyle
  2
Conceptual
 70
     9
177
     3
291
     0
 70
    58
 90
        3
176
     1
 90
        2
176
     1
 90
        0
176
     1
 90
        0
176
     1
 40
0.6
176
     1
 40
30.0
176
     1
 62
     7
420
 16777215
176
     1
 90
        2
176
     1
 90
        2
176
     1
 62
     7
176
     1
 62
   257
176
     1
 90
        1
176
     1
 90
        1
176
     1
 40
179.0
176
     1
 90
        8
176
     1
 62
     7
176
     1
 40
1.0
176
     1
 90
        1
176
     1
 90
        6
176
     1
 90
        2
176
     1
 62
     7
176
     1
 90
        3
176
     1
 90
        0
176
     1
 90
        0
176
     1
290
     0
176
     1
 90
        1
176
     1
 40
0.0
176
     1
 90
        0
176
     1
290
     0
176
     1
290
     1
176
     1
290
     1
176
     1
290
     0
176
     1
290
     0
176
     1
290
     0
176
     1
290
     0
176
     1
290
     0
176
     1
290
     0
176
     1
 90
       50
176
     1
 40
0.0
176
     1
 40
1.0
176
     1
 90
        0
176
     1
 62
   178
420
        0
176
     1
 90
       50
176
     1
 90
        3
176
     1
 62
     5
420
      255
176
     1
290
     0
176
     1
 90
       50
176
     1
 90
       50
176
     1
 90
       50
176
     1
290
     0
176
     1
 90
       50
176
     1
 62
   256
176
     0
 40
1.0
176
     0
 90
        2
176
     1
  1
strokes_ogs.tif
176
     1
290
     0
176
     1
 40
1.0
176
     1
 40
1.0
176
     1
  0
VISUALSTYLE
  5
59E
102
{ACAD_REACTORS
330
593
102
}
330
593
100
AcDbVisualStyle
  2
Dim
 70
    11
177
     3
291
     1
 70
    58
 90
        2
176
     1
 90
        2
176
     1
 90
        0
176
     1
 90
        0
176
     1
 40
0.6
176
     1
 40
30.0
176
     1
 62
     7
420
 16777215
176
     1
 90
        1
176
     1
 90
        4
176
     1
 62
     7
176
     1
 62
   257
176
     1
 90
        1
176
     1
 90
        1
176
     1
 40
1.0
176
     1
 90
        8
176
     1
 62
     7
176
     1
 40
1.0
176
     1
 90
        1
176
     1
 90
        6
176
     1
 90
        2
176
     1
 62
     7
176
     1
 90
        5
176
     1
 90
        0
176
     1
 90
        0
176
     1
290
     0
176
     1
 90
        1
176
     1
 40
-50.0
176
     1
 90
        0
176
     1
290
     0
176
     1
290
     1
176
     1
290
     1
176
     1
290
     0
176
     1
290
     0
176
     1
290
     0
176
     1
290
     0
176
     1
290
     0
176
     1
290
     0
176
     1
 90
       50
176
     1
 40
0.0
176
     1
 40
1.0
176
     1
 90
        0
176
     1
 62
   178
420
        0
176
     1
 90
       50
176
     1
 90
        3
176
     1
 62
     5
420
      255
176
     1
290
     0
176
     1
 90
       50
176
     1
 90
       50
176
     1
 90
       50
176
     1
290
     0
176
     1
 90
       50
176
     1
 62
   256
176
     0
 40
1.0
176
     0
 90
        2
176
     1
  1
strokes_ogs.tif
176
     1
290
     0
176
     1
 40
1.0
176
     1
 40
1.0
176
     1
  0
VISUALSTYLE
  5
5A6
102
{ACAD_REACTORS
330
593
102
}
330
593
100
AcDbVisualStyle
  2
EdgeColorOff
 70
    22
177
     3
291
     1
 70
    58
 90
        2
176
     0
 90
        2
176
     0
 90
        0
176
     0
 90
        0
176
     0
 40
0.6
176
     0
 40
30.0
176
     0
 62
     7
420
 16777215
176
     0
 90
        1
176
     0
 90
        4
176
     0
 62
     7
176
     0
 62
   257
176
     0
 90
        1
176
     0
 90
        1
176
     0
 40
1.0
176
     0
 90
        8
176
     2
 62
     7
176
     0
 40
1.0
176
     0
 90
        1
176
     0
 90
        6
176
     0
 90
        2
176
     0
 62
     7
176
     0
 90
        5
176
     0
 90
        0
176
     0
 90
        0
176
     0
290
     0
176
     0
 90
        1
176
     0
 40
0.0
176
     0
 90
        0
176
     0
290
     0
176
     0
290
     1
176
     0
290
     1
176
     0
290
     0
176
     0
290
     0
176
     0
290
     0
176
     0
290
     0
176
     0
290
     0
176
     0
290
     0
176
     0
 90
       50
176
     0
 40
0.0
176
     0
 40
1.0
176
     0
 90
        0
176
     0
 62
   178
420
        0
176
     0
 90
       50
176
     0
 90
        3
176
     0
 62
     5
420
      255
176
     0
290
     0
176
     0
 90
       50
176
     0
 90
       50
176
     0
 90
       50
176
     0
290
     0
176
     0
 90
       50
176
     0
 62
   256
176
     0
 40
1.0
176
     0
 90
        2
176
     0
  1
strokes_ogs.tif
176
     0
290
     0
176
     0
 40
1.0
176
     0
 40
1.0
176
     0
  0
VISUALSTYLE
  5
5A2
102
{ACAD_REACTORS
330
593
102
}
330
593
100
AcDbVisualStyle
  2
Facepattern
 70
    15
177
     3
291
     1
 70
    58
 90
        2
176
     1
 90
        2
176
     1
 90
        0
176
     1
 90
        0
176
     1
 40
0.6
176
     1
 40
30.0
176
     1
 62
     7
420
 16777215
176
     1
 90
        1
176
     1
 90
        4
176
     1
 62
     7
176
     1
 62
   257
176
     1
 90
        1
176
     1
 90
        1
176
     1
 40
1.0
176
     1
 90
        8
176
     1
 62
     7
176
     1
 40
1.0
176
     1
 90
        1
176
     1
 90
        6
176
     1
 90
        2
176
     1
 62
     7
176
     1
 90
        5
176
     1
 90
        0
176
     1
 90
        0
176
     1
290
     0
176
     1
 90
        1
176
     1
 40
0.0
176
     1
 90
        0
176
     1
290
     0
176
     1
290
     1
176
     1
290
     1
176
     1
290
     0
176
     1
290
     0
176
     1
290
     0
176
     1
290
     0
176
     1
290
     0
176
     1
290
     0
176
     1
 90
       50
176
     1
 40
0.0
176
     1
 40
1.0
176
     1
 90
        0
176
     1
 62
   178
420
        0
176
     1
 90
       50
176
     1
 90
        3
176
     1
 62
     5
420
      255
176
     1
290
     0
176
     1
 90
       50
176
     1
 90
       50
176
     1
 90
       50
176
     1
290
     0
176
     1
 90
       50
176
     1
 62
   256
176
     0
 40
1.0
176
     0
 90
        2
176
     1
  1
strokes_ogs.tif
176
     1
290
     0
176
     1
 40
1.0
176
     1
 40
1.0
176
     1
  0
VISUALSTYLE
  5
594
102
{ACAD_REACTORS
330
593
102
}
330
593
100
AcDbVisualStyle
  2
Flat
 70
     0
177
     3
291
     1
 70
    58
 90
        2
176
     1
 90
        1
176
     1
 90
        1
176
     1
 90
        2
176
     1
 40
0.6
176
     1
 40
30.0
176
     1
 62
     7
420
 16777215
176
     1
 90
        0
176
     1
 90
        0
176
     1
 62
     7
176
     1
 62
   257
176
     1
 90
        1
176
     1
 90
        1
176
     1
 40
1.0
176
     1
 90
        8
176
     1
 62
     7
176
     1
 40
1.0
176
     1
 90
        1
176
     1
 90
        6
176
     1
 90
        2
176
     1
 62
     7
176
     1
 90
        5
176
     1
 90
        0
176
     1
 90
        0
176
     1
290
     0
176
     1
 90
       13
176
     1
 40
0.0
176
     1
 90
        0
176
     1
290
     0
176
     1
290
     1
176
     1
290
     1
176
     1
290
     0
176
     1
290
     0
176
     1
290
     0
176
     1
290
     0
176
     1
290
     0
176
     1
290
     0
176
     1
 90
       50
176
     1
 40
0.0
176
     1
 40
1.0
176
     1
 90
        0
176
     1
 62
   178
420
        0
176
     1
 90
       50
176
     1
 90
        3
176
     1
 62
     5
420
      255
176
     1
290
     0
176
     1
 90
       50
176
     1
 90
       50
176
     1
 90
       50
176
     1
290
     0
176
     1
 90
       50
176
     1
 62
   256
176
     0
 40
1.0
176
     0
 90
        2
176
     1
  1
strokes_ogs.tif
176
     1
290
     0
176
     1
 40
1.0
176
     1
 40
1.0
176
     1
  0
VISUALSTYLE
  5
595
102
{ACAD_REACTORS
330
593
102
}
330
593
100
AcDbVisualStyle
  2
FlatWithEdges
 70
     1
177
     3
291
     1
 70
    58
 90
        2
176
     1
 90
        1
176
     1
 90
        1
176
     1
 90
        2
176
     1
 40
0.6
176
     1
 40
30.0
176
     1
 62
     7
420
 16777215
176
     1
 90
        1
176
     1
 90
        0
176
     1
 62
     7
176
     1
 62
   257
176
     1
 90
        1
176
     1
 90
        1
176
     1
 40
1.0
176
     1
 90
        0
176
     1
 62
   257
176
     1
 40
1.0
176
     1
 90
        1
176
     1
 90
        6
176
     1
 90
        2
176
     1
 62
     7
176
     1
 90
        5
176
     1
 90
        0
176
     1
 90
        0
176
     1
290
     0
176
     1
 90
       13
176
     1
 40
0.0
176
     1
 90
        0
176
     1
290
     0
176
     1
290
     1
176
     1
290
     1
176
     1
290
     0
176
     1
290
     0
176
     1
290
     0
176
     1
290
     0
176
     1
290
     0
176
     1
290
     0
176
     1
 90
       50
176
     1
 40
0.0
176
     1
 40
1.0
176
     1
 90
        0
176
     1
 62
   178
420
        0
176
     1
 90
       50
176
     1
 90
        3
176
     1
 62
     5
420
      255
176
     1
290
     0
176
     1
 90
       50
176
     1
 90
       50
176
     1
 90
       50
176
     1
290
     0
176
     1
 90
       50
176
     1
 62
   256
176
     0
 40
1.0
176
     0
 90
        2
176
     1
  1
strokes_ogs.tif
176
     1
290
     0
176
     1
 40
1.0
176
     1
 40
1.0
176
     1
  0
VISUALSTYLE
  5
596
102
{ACAD_REACTORS
330
593
102
}
330
593
100
AcDbVisualStyle
  2
Gouraud
 70
     2
177
     3
291
     1
 70
    58
 90
        2
176
     1
 90
        2
176
     1
 90
        1
176
     1
 90
        2
176
     1
 40
0.6
176
     1
 40
30.0
176
     1
 62
     7
420
 16777215
176
     1
 90
        0
176
     1
 90
        0
176
     1
 62
     7
176
     1
 62
   257
176
     1
 90
        1
176
     1
 90
        1
176
     1
 40
1.0
176
     1
 90
        0
176
     1
 62
     7
176
     1
 40
1.0
176
     1
 90
        1
176
     1
 90
        6
176
     1
 90
        2
176
     1
 62
     7
176
     1
 90
        5
176
     1
 90
        0
176
     1
 90
        0
176
     1
290
     0
176
     1
 90
       13
176
     1
 40
0.0
176
     1
 90
        0
176
     1
290
     0
176
     1
290
     1
176
     1
290
     1
176
     1
290
     0
176
     1
290
     0
176
     1
290
     0
176
     1
290
     0
176
     1
290
     0
176
     1
290
     0
176
     1
 90
       50
176
     1
 40
0.0
176
     1
 40
1.0
176
     1
 90
        0
176
     1
 62
   178
420
        0
176
     1
 90
       50
176
     1
 90
        3
176
     1
 62
     5
420
      255
176
     1
290
     0
176
     1
 90
       50
176
     1
 90
       50
176
     1
 90
       50
176
     1
290
     0
176
     1
 90
       50
176
     1
 62
   256
176
     0
 40
1.0
176
     0
 90
        2
176
     1
  1
strokes_ogs.tif
176
     1
290
     0
176
     1
 40
1.0
176
     1
 40
1.0
176
     1
  0
VISUALSTYLE
  5
597
102
{ACAD_REACTORS
330
593
102
}
330
593
100
AcDbVisualStyle
  2
GouraudWithEdges
 70
     3
177
     3
291
     1
 70
    58
 90
        2
176
     1
 90
        2
176
     1
 90
        1
176
     1
 90
        2
176
     1
 40
0.6
176
     1
 40
30.0
176
     1
 62
     7
420
 16777215
176
     1
 90
        1
176
     1
 90
        0
176
     1
 62
     7
176
     1
 62
   257
176
     1
 90
        1
176
     1
 90
        1
176
     1
 40
1.0
176
     1
 90
        0
176
     1
 62
   257
176
     1
 40
1.0
176
     1
 90
        1
176
     1
 90
        6
176
     1
 90
        2
176
     1
 62
     7
176
     1
 90
        5
176
     1
 90
        0
176
     1
 90
        0
176
     1
290
     0
176
     1
 90
       13
176
     1
 40
0.0
176
     1
 90
        0
176
     1
290
     0
176
     1
290
     1
176
     1
290
     1
176
     1
290
     0
176
     1
290
     0
176
     1
290
     0
176
     1
290
     0
176
     1
290
     0
176
     1
290
     0
176
     1
 90
       50
176
     1
 40
0.0
176
     1
 40
1.0
176
     1
 90
        0
176
     1
 62
   178
420
        0
176
     1
 90
       50
176
     1
 90
        3
176
     1
 62
     5
420
      255
176
     1
290
     0
176
     1
 90
       50
176
     1
 90
       50
176
     1
 90
       50
176
     1
290
     0
176
     1
 90
       50
176
     1
 62
   256
176
     0
 40
1.0
176
     0
 90
        2
176
     1
  1
strokes_ogs.tif
176
     1
290
     0
176
     1
 40
1.0
176
     1
 40
1.0
176
     1
  0
VISUALSTYLE
  5
59A
102
{ACAD_REACTORS
330
593
102
}
330
593
100
AcDbVisualStyle
  2
Hidden
 70
     6
177
     3
291
     0
 70
    58
 90
        1
176
     1
 90
        2
176
     1
 90
        2
176
     1
 90
        0
176
     1
 40
0.6
176
     1
 40
30.0
176
     1
 62
     7
420
 16777215
176
     1
 90
        2
176
     1
 90
        2
176
     1
 62
     7
176
     1
 62
   257
176
     1
 90
        2
176
     1
 90
        1
176
     1
 40
40.0
176
     1
 90
        0
176
     1
 62
   257
176
     1
 40
1.0
176
     1
 90
        1
176
     1
 90
        6
176
     1
 90
        2
176
     1
 62
     7
176
     1
 90
        3
176
     1
 90
        0
176
     1
 90
        0
176
     1
290
     0
176
     1
 90
        1
176
     1
 40
0.0
176
     1
 90
        0
176
     1
290
     0
176
     1
290
     1
176
     1
290
     1
176
     1
290
     0
176
     1
290
     0
176
     1
290
     0
176
     1
290
     0
176
     1
290
     0
176
     1
290
     0
176
     1
 90
       50
176
     1
 40
0.0
176
     1
 40
1.0
176
     1
 90
        0
176
     1
 62
   178
420
        0
176
     1
 90
       50
176
     1
 90
        3
176
     1
 62
     5
420
      255
176
     1
290
     0
176
     1
 90
       50
176
     1
 90
       50
176
     1
 90
       50
176
     1
290
     0
176
     1
 90
       50
176
     1
 62
   256
176
     0
 40
1.0
176
     0
 90
        2
176
     1
  1
strokes_ogs.tif
176
     1
290
     0
176
     1
 40
1.0
176
     1
 40
1.0
176
     1
  0
VISUALSTYLE
  5
5A4
102
{ACAD_REACTORS
330
593
102
}
330
593
100
AcDbVisualStyle
  2
JitterOff
 70
    20
177
     3
291
     1
 70
    58
 90
        2
176
     0
 90
        2
176
     0
 90
        0
176
     0
 90
        0
176
     0
 40
0.6
176
     0
 40
30.0
176
     0
 62
     7
420
 16777215
176
     0
 90
        1
176
     0
 90
        4
176
     0
 62
     7
176
     0
 62
   257
176
     0
 90
        1
176
     0
 90
        1
176
     0
 40
1.0
176
     0
 90
       10
176
     2
 62
     7
176
     0
 40
1.0
176
     0
 90
        1
176
     0
 90
        6
176
     0
 90
        2
176
     0
 62
     7
176
     0
 90
        5
176
     0
 90
        0
176
     0
 90
        0
176
     0
290
     0
176
     0
 90
        1
176
     0
 40
0.0
176
     0
 90
        0
176
     0
290
     0
176
     0
290
     1
176
     0
290
     1
176
     0
290
     0
176
     0
290
     0
176
     0
290
     0
176
     0
290
     0
176
     0
290
     0
176
     0
290
     0
176
     0
 90
       50
176
     0
 40
0.0
176
     0
 40
1.0
176
     0
 90
        0
176
     0
 62
   178
420
        0
176
     0
 90
       50
176
     0
 90
        3
176
     0
 62
     5
420
      255
176
     0
290
     0
176
     0
 90
       50
176
     0
 90
       50
176
     0
 90
       50
176
     0
290
     0
176
     0
 90
       50
176
     0
 62
   256
176
     0
 40
1.0
176
     0
 90
        2
176
     0
  1
strokes_ogs.tif
176
     0
290
     0
176
     0
 40
1.0
176
     0
 40
1.0
176
     0
  0
VISUALSTYLE
  5
5A1
102
{ACAD_REACTORS
330
593
102
}
330
593
100
AcDbVisualStyle
  2
Linepattern
 70
    14
177
     3
291
     1
 70
    58
 90
        2
176
     1
 90
        2
176
     1
 90
        0
176
     1
 90
        0
176
     1
 40
0.6
176
     1
 40
30.0
176
     1
 62
     7
420
 16777215
176
     1
 90
        1
176
     1
 90
        4
176
     1
 62
     7
176
     1
 62
   257
176
     1
 90
        7
176
     1
 90
        7
176
     1
 40
1.0
176
     1
 90
        8
176
     1
 62
     7
176
     1
 40
1.0
176
     1
 90
        1
176
     1
 90
        6
176
     1
 90
        2
176
     1
 62
     7
176
     1
 90
        5
176
     1
 90
        0
176
     1
 90
        0
176
     1
290
     0
176
     1
 90
        1
176
     1
 40
0.0
176
     1
 90
        0
176
     1
290
     0
176
     1
290
     1
176
     1
290
     1
176
     1
290
     0
176
     1
290
     0
176
     1
290
     0
176
     1
290
     0
176
     1
290
     0
176
     1
290
     0
176
     1
 90
       50
176
     1
 40
0.0
176
     1
 40
1.0
176
     1
 90
        0
176
     1
 62
   178
420
        0
176
     1
 90
       50
176
     1
 90
        3
176
     1
 62
     5
420
      255
176
     1
290
     0
176
     1
 90
       50
176
     1
 90
       50
176
     1
 90
       50
176
     1
290
     0
176
     1
 90
       50
176
     1
 62
   256
176
     0
 40
1.0
176
     0
 90
        2
176
     1
  1
strokes_ogs.tif
176
     1
290
     0
176
     1
 40
1.0
176
     1
 40
1.0
176
     1
  0
VISUALSTYLE
  5
5A5
102
{ACAD_REACTORS
330
593
102
}
330
593
100
AcDbVisualStyle
  2
OverhangOff
 70
    21
177
     3
291
     1
 70
    58
 90
        2
176
     0
 90
        2
176
     0
 90
        0
176
     0
 90
        0
176
     0
 40
0.6
176
     0
 40
30.0
176
     0
 62
     7
420
 16777215
176
     0
 90
        1
176
     0
 90
        4
176
     0
 62
     7
176
     0
 62
   257
176
     0
 90
        1
176
     0
 90
        1
176
     0
 40
1.0
176
     0
 90
        9
176
     2
 62
     7
176
     0
 40
1.0
176
     0
 90
        1
176
     0
 90
        6
176
     0
 90
        2
176
     0
 62
     7
176
     0
 90
        5
176
     0
 90
        0
176
     0
 90
        0
176
     0
290
     0
176
     0
 90
        1
176
     0
 40
0.0
176
     0
 90
        0
176
     0
290
     0
176
     0
290
     1
176
     0
290
     1
176
     0
290
     0
176
     0
290
     0
176
     0
290
     0
176
     0
290
     0
176
     0
290
     0
176
     0
290
     0
176
     0
 90
       50
176
     0
 40
0.0
176
     0
 40
1.0
176
     0
 90
        0
176
     0
 62
   178
420
        0
176
     0
 90
       50
176
     0
 90
        3
176
     0
 62
     5
420
      255
176
     0
290
     0
176
     0
 90
       50
176
     0
 90
       50
176
     0
 90
       50
176
     0
290
     0
176
     0
 90
       50
176
     0
 62
   256
176
     0
 40
1.0
176
     0
 90
        2
176
     0
  1
strokes_ogs.tif
176
     0
290
     0
176
     0
 40
1.0
176
     0
 40
1.0
176
     0
  0
VISUALSTYLE
  5
59C
102
{ACAD_REACTORS
330
593
102
}
330
593
100
AcDbVisualStyle
  2
Realistic
 70
     8
177
     3
291
     0
 70
    58
 90
        2
176
     1
 90
        3
176
     1
 90
        0
176
     1
 90
        2
176
     1
 40
0.6
176
     1
 40
30.0
176
     1
 62
     7
420
 16777215
176
     1
 90
        0
176
     1
 90
        0
176
     1
 62
     7
176
     1
 62
   257
176
     1
 90
        1
176
     1
 90
        1
176
     1
 40
1.0
176
     1
 90
        8
176
     1
 62
   257
176
     1
 40
1.0
176
     1
 90
        1
176
     1
 90
        6
176
     1
 90
        2
176
     1
 62
     7
176
     1
 90
        3
176
     1
 90
        0
176
     1
 90
        0
176
     1
290
     0
176
     1
 90
       13
176
     1
 40
0.0
176
     1
 90
        0
176
     1
290
     0
176
     1
290
     1
176
     1
290
     1
176
     1
290
     0
176
     1
290
     0
176
     1
290
     0
176
     1
290
     0
176
     1
290
     0
176
     1
290
     0
176
     1
 90
       50
176
     1
 40
0.0
176
     1
 40
1.0
176
     1
 90
        0
176
     1
 62
   178
420
        0
176
     1
 90
       50
176
     1
 90
        3
176
     1
 62
     5
420
      255
176
     1
290
     0
176
     1
 90
       50
176
     1
 90
       50
176
     1
 90
       50
176
     1
290
     0
176
     1
 90
       50
176
     1
 62
   256
176
     0
 40
1.0
176
     0
 90
        2
176
     1
  1
strokes_ogs.tif
176
     1
290
     0
176
     1
 40
1.0
176
     1
 40
1.0
176
     1
  0
VISUALSTYLE
  5
5AB
102
{ACAD_REACTORS
330
593
102
}
330
593
100
AcDbVisualStyle
  2
Shaded
 70
    27
177
     3
291
     0
 70
    58
 90
        2
176
     1
 90
        2
176
     1
 90
        1
176
     1
 90
        2
176
     1
 40
0.6
176
     1
 40
30.0
176
     1
 62
     7
420
 16777215
176
     1
 90
        0
176
     1
 90
        4
176
     1
 62
     7
176
     1
 62
   257
176
     1
 90
        1
176
     1
 90
        1
176
     1
 40
1.0
176
     1
 90
        8
176
     1
 62
   257
176
     1
 40
1.0
176
     1
 90
        1
176
     1
 90
        6
176
     1
 90
        2
176
     1
 62
     8
420
  7895160
176
     1
 90
        3
176
     1
 90
        0
176
     1
 90
        0
176
     1
290
     0
176
     1
 90
        5
176
     1
 40
0.0
176
     1
 90
        0
176
     1
290
     0
176
     1
290
     1
176
     1
290
     1
176
     1
290
     0
176
     1
290
     0
176
     1
290
     0
176
     1
290
     0
176
     1
290
     0
176
     1
290
     0
176
     1
 90
       50
176
     1
 40
0.0
176
     1
 40
1.0
176
     1
 90
        0
176
     1
 62
   178
420
        0
176
     1
 90
       50
176
     1
 90
        3
176
     1
 62
     5
420
      255
176
     1
290
     0
176
     1
 90
       50
176
     1
 90
       50
176
     1
 90
       50
176
     1
290
     0
176
     1
 90
       50
176
     1
 62
   256
176
     0
 40
1.0
176
     0
 90
        2
176
     1
  1
strokes_ogs.tif
176
     1
290
     0
176
     1
 40
1.0
176
     1
 40
1.0
176
     1
  0
VISUALSTYLE
  5
5AA
102
{ACAD_REACTORS
330
593
102
}
330
593
100
AcDbVisualStyle
  2
Shaded with edges
 70
    26
177
     3
291
     0
 70
    58
 90
        2
176
     1
 90
        2
176
     1
 90
        1
176
     1
 90
        2
176
     1
 40
0.6
176
     1
 40
30.0
176
     1
 62
     7
420
 16777215
176
     1
 90
        1
176
     1
 90
       10
176
     1
 62
     7
176
     1
 62
   257
176
     1
 90
        2
176
     1
 90
        1
176
     1
 40
1.0
176
     1
 90
        8
176
     1
 62
   257
176
     1
 40
1.0
176
     1
 90
        1
176
     1
 90
        6
176
     1
 90
        2
176
     1
 62
     7
176
     1
 90
        3
176
     1
 90
        0
176
     1
 90
        0
176
     1
290
     0
176
     1
 90
        5
176
     1
 40
0.0
176
     1
 90
        0
176
     1
290
     0
176
     1
290
     1
176
     1
290
     1
176
     1
290
     0
176
     1
290
     0
176
     1
290
     0
176
     1
290
     0
176
     1
290
     0
176
     1
290
     0
176
     1
 90
       50
176
     1
 40
0.0
176
     1
 40
1.0
176
     1
 90
        0
176
     1
 62
   178
420
        0
176
     1
 90
       50
176
     1
 90
        3
176
     1
 62
     5
420
      255
176
     1
290
     0
176
     1
 90
       50
176
     1
 90
       50
176
     1
 90
       50
176
     1
290
     0
176
     1
 90
       50
176
     1
 62
   256
176
     0
 40
1.0
176
     0
 90
        2
176
     1
  1
strokes_ogs.tif
176
     1
290
     0
176
     1
 40
1.0
176
     1
 40
1.0
176
     1
  0
VISUALSTYLE
  5
5A7
102
{ACAD_REACTORS
330
593
102
}
330
593
100
AcDbVisualStyle
  2
Shades of Gray
 70
    23
177
     3
291
     0
 70
    58
 90
        2
176
     1
 90
        2
176
     1
 90
        3
176
     1
 90
        0
176
     1
 40
0.6
176
     1
 40
30.0
176
     1
 62
     7
420
 16777215
176
     1
 90
        2
176
     1
 90
        2
176
     1
 62
     7
176
     1
 62
     7
176
     1
 90
        1
176
     1
 90
        1
176
     1
 40
40.0
176
     1
 90
        8
176
     1
 62
     7
176
     1
 40
1.0
176
     1
 90
        1
176
     1
 90
        6
176
     1
 90
        2
176
     1
 62
     7
176
     1
 90
        3
176
     1
 90
        0
176
     1
 90
        0
176
     1
290
     0
176
     1
 90
        1
176
     1
 40
0.0
176
     1
 90
        0
176
     1
290
     0
176
     1
290
     1
176
     1
290
     1
176
     1
290
     0
176
     1
290
     0
176
     1
290
     0
176
     1
290
     0
176
     1
290
     0
176
     1
290
     0
176
     1
 90
       50
176
     1
 40
0.0
176
     1
 40
1.0
176
     1
 90
        0
176
     1
 62
   178
420
        0
176
     1
 90
       50
176
     1
 90
        3
176
     1
 62
     5
420
      255
176
     1
290
     0
176
     1
 90
       50
176
     1
 90
       50
176
     1
 90
       50
176
     1
290
     0
176
     1
 90
       50
176
     1
 62
   256
176
     0
 40
1.0
176
     0
 90
        2
176
     1
  1
strokes_ogs.tif
176
     1
290
     0
176
     1
 40
1.0
176
     1
 40
1.0
176
     1
  0
VISUALSTYLE
  5
5A8
102
{ACAD_REACTORS
330
593
102
}
330
593
100
AcDbVisualStyle
  2
Sketchy
 70
    24
177
     3
291
     0
 70
    58
 90
        1
176
     1
 90
        2
176
     1
 90
        2
176
     1
 90
        0
176
     1
 40
0.6
176
     1
 40
30.0
176
     1
 62
     7
420
 16777215
176
     1
 90
        2
176
     1
 90
        2
176
     1
 62
     7
176
     1
 62
     7
176
     1
 90
        1
176
     1
 90
        1
176
     1
 40
40.0
176
     1
 90
       11
176
     1
 62
     7
176
     1
 40
1.0
176
     1
 90
        1
176
     1
 90
        6
176
     1
 90
        2
176
     1
 62
     7
176
     1
 90
        6
176
     1
 90
        0
176
     1
 90
        0
176
     1
290
     0
176
     1
 90
        1
176
     1
 40
0.0
176
     1
 90
        0
176
     1
290
     0
176
     1
290
     1
176
     1
290
     1
176
     1
290
     0
176
     1
290
     0
176
     1
290
     0
176
     1
290
     0
176
     1
290
     0
176
     1
290
     0
176
     1
 90
       50
176
     1
 40
0.0
176
     1
 40
1.0
176
     1
 90
        0
176
     1
 62
   178
420
        0
176
     1
 90
       50
176
     1
 90
        3
176
     1
 62
     5
420
      255
176
     1
290
     0
176
     1
 90
       50
176
     1
 90
       50
176
     1
 90
       50
176
     1
290
     0
176
     1
 90
       50
176
     1
 62
   256
176
     0
 40
1.0
176
     0
 90
        2
176
     1
  1
strokes_ogs.tif
176
     1
290
     0
176
     1
 40
1.0
176
     1
 40
1.0
176
     1
  0
VISUALSTYLE
  5
5A0
102
{ACAD_REACTORS
330
593
102
}
330
593
100
AcDbVisualStyle
  2
Thicken
 70
    13
177
     3
291
     1
 70
    58
 90
        2
176
     1
 90
        2
176
     1
 90
        0
176
     1
 90
        0
176
     1
 40
0.6
176
     1
 40
30.0
176
     1
 62
     7
420
 16777215
176
     1
 90
        1
176
     1
 90
        4
176
     1
 62
     7
176
     1
 62
   257
176
     1
 90
        1
176
     1
 90
        1
176
     1
 40
1.0
176
     1
 90
       12
176
     1
 62
     7
176
     1
 40
1.0
176
     1
 90
        1
176
     1
 90
        6
176
     1
 90
        2
176
     1
 62
     7
176
     1
 90
        5
176
     1
 90
        0
176
     1
 90
        0
176
     1
290
     0
176
     1
 90
        1
176
     1
 40
0.0
176
     1
 90
        0
176
     1
290
     0
176
     1
290
     1
176
     1
290
     1
176
     1
290
     0
176
     1
290
     0
176
     1
290
     0
176
     1
290
     0
176
     1
290
     0
176
     1
290
     0
176
     1
 90
       50
176
     1
 40
0.0
176
     1
 40
1.0
176
     1
 90
        0
176
     1
 62
   178
420
        0
176
     1
 90
       50
176
     1
 90
        3
176
     1
 62
     5
420
      255
176
     1
290
     0
176
     1
 90
       50
176
     1
 90
       50
176
     1
 90
       50
176
     1
290
     0
176
     1
 90
       50
176
     1
 62
   256
176
     0
 40
1.0
176
     0
 90
        2
176
     1
  1
strokes_ogs.tif
176
     1
290
     0
176
     1
 40
1.0
176
     1
 40
1.0
176
     1
  0
VISUALSTYLE
  5
599
102
{ACAD_REACTORS
330
593
102
}
330
593
100
AcDbVisualStyle
  2
Wireframe
 70
     5
177
     3
291
     0
 70
    58
 90
        0
176
     1
 90
        2
176
     1
 90
        0
176
     1
 90
        0
176
     1
 40
0.6
176
     1
 40
30.0
176
     1
 62
     7
420
 16777215
176
     1
 90
        1
176
     1
 90
        4
176
     1
 62
     7
176
     1
 62
   257
176
     1
 90
        1
176
     1
 90
        1
176
     1
 40
1.0
176
     1
 90
        0
176
     1
 62
   257
176
     1
 40
1.0
176
     1
 90
        1
176
     1
 90
        6
176
     1
 90
        2
176
     1
 62
     7
176
     1
 90
        3
176
     1
 90
        0
176
     1
 90
        0
176
     1
290
     0
176
     1
 90
        1
176
     1
 40
0.0
176
     1
 90
        0
176
     1
290
     0
176
     1
290
     1
176
     1
290
     1
176
     1
290
     0
176
     1
290
     0
176
     1
290
     0
176
     1
290
     0
176
     1
290
     0
176
     1
290
     0
176
     1
 90
       50
176
     1
 40
0.0
176
     1
 40
1.0
176
     1
 90
        0
176
     1
 62
   178
420
        0
176
     1
 90
       50
176
     1
 90
        3
176
     1
 62
     5
420
      255
176
     1
290
     0
176
     1
 90
       50
176
     1
 90
       50
176
     1
 90
       50
176
     1
290
     0
176
     1
 90
       50
176
     1
 62
   256
176
     0
 40
1.0
176
     0
 90
        2
176
     1
  1
strokes_ogs.tif
176
     1
290
     0
176
     1
 40
1.0
176
     1
 40
1.0
176
     1
  0
VISUALSTYLE
  5
5A9
102
{ACAD_REACTORS
330
593
102
}
330
593
100
AcDbVisualStyle
  2
X-Ray
 70
    25
177
     3
291
     0
 70
    58
 90
        2
176
     1
 90
        2
176
     1
 90
        1
176
     1
 90
        1
176
     1
 40
0.5
176
     1
 40
30.0
176
     1
 62
     7
420
 16777215
176
     1
 90
        1
176
     1
 90
        0
176
     1
 62
     7
176
     1
 62
   257
176
     1
 90
        1
176
     1
 90
        1
176
     1
 40
1.0
176
     1
 90
        8
176
     1
 62
     7
176
     1
 40
1.0
176
     1
 90
        1
176
     1
 90
        6
176
     1
 90
        2
176
     1
 62
     7
176
     1
 90
        3
176
     1
 90
        0
176
     1
 90
        0
176
     1
290
     0
176
     1
 90
       13
176
     1
 40
0.0
176
     1
 90
        0
176
     1
290
     0
176
     1
290
     1
176
     1
290
     1
176
     1
290
     0
176
     1
290
     0
176
     1
290
     0
176
     1
290
     0
176
     1
290
     0
176
     1
290
     0
176
     1
 90
       50
176
     1
 40
0.0
176
     1
 40
1.0
176
     1
 90
        0
176
     1
 62
   178
420
        0
176
     1
 90
       50
176
     1
 90
        3
176
     1
 62
     5
420
      255
176
     1
290
     0
176
     1
 90
       50
176
     1
 90
       50
176
     1
 90
       50
176
     1
290
     0
176
     1
 90
       50
176
     1
 62
   256
176
     0
 40
1.0
176
     0
 90
        2
176
     1
  1
strokes_ogs.tif
176
     1
290
     0
176
     1
 40
1.0
176
     1
 40
1.0
176
     1
  0
DICTIONARYVAR
  5
5B4
102
{ACAD_REACTORS
330
5B3
102
}
330
5B3
100
DictionaryVariables
280
     0
  1
1:1
  0
DICTIONARYVAR
  5
5B6
102
{ACAD_REACTORS
330
5B3
102
}
330
5B3
100
DictionaryVariables
280
     0
  1
Standard
  0
DICTIONARYVAR
  5
5B5
102
{ACAD_REACTORS
330
5B3
102
}
330
5B3
100
DictionaryVariables
280
     0
  1
Standard
  0
DICTIONARYVAR
  5
5B7
102
{ACAD_REACTORS
330
5B3
102
}
330
5B3
100
DictionaryVariables
280
     0
  1
0
  0
DICTIONARY
  5
5BA
330
5AD
100
AcDbDictionary
280
     1
281
     1
  3
ACAD_ROUNDTRIP_2008_TABLESTYLE_CELLSTYLEMAP
360
5BB
  0
CELLSTYLEMAP
  5
5BB
102
{ACAD_REACTORS
330
5BA
102
}
330
5BA
100
AcDbCellStyleMap
 90
        3
300
CELLSTYLE
  1
TABLEFORMAT_BEGIN
 90
        5
170
     1
 91
        0
 92
    32768
 62
   257
 93
        1
300
CONTENTFORMAT
  1
CONTENTFORMAT_BEGIN
 90
        0
 91
        0
 92
        4
 93
        0
300

 40
0.0
140
1.0
 94
        5
 62
     0
340
54A
144
0.25
309
CONTENTFORMAT_END
171
     1
301
MARGIN
  1
CELLMARGIN_BEGIN
 40
0.06
 40
0.06
 40
0.06
 40
0.06
 40
0.06
 40
0.06
309
CELLMARGIN_END
 94
        6
 95
        1
302
GRIDFORMAT
  1
GRIDFORMAT_BEGIN
 90
        0
 91
        1
 62
     0
 92
       -2
340
54C
 93
        0
 40
0.045
309
GRIDFORMAT_END
 95
        2
302
GRIDFORMAT
  1
GRIDFORMAT_BEGIN
 90
        0
 91
        1
 62
     0
 92
       -2
340
54C
 93
        0
 40
0.045
309
GRIDFORMAT_END
 95
        4
302
GRIDFORMAT
  1
GRIDFORMAT_BEGIN
 90
        0
 91
        1
 62
     0
 92
       -2
340
54C
 93
        0
 40
0.045
309
GRIDFORMAT_END
 95
        8
302
GRIDFORMAT
  1
GRIDFORMAT_BEGIN
 90
        0
 91
        1
 62
     0
 92
       -2
340
54C
 93
        0
 40
0.045
309
GRIDFORMAT_END
 95
       16
302
GRIDFORMAT
  1
GRIDFORMAT_BEGIN
 90
        0
 91
        1
 62
     0
 92
       -2
340
54C
 93
        0
 40
0.045
309
GRIDFORMAT_END
 95
       32
302
GRIDFORMAT
  1
GRIDFORMAT_BEGIN
 90
        0
 91
        1
 62
     0
 92
       -2
340
54C
 93
        0
 40
0.045
309
GRIDFORMAT_END
309
TABLEFORMAT_END
  1
CELLSTYLE_BEGIN
 90
        1
 91
        1
300
_TITLE
309
CELLSTYLE_END
300
CELLSTYLE
  1
TABLEFORMAT_BEGIN
 90
        5
170
     1
 91
        0
 92
        0
 62
   257
 93
        1
300
CONTENTFORMAT
  1
CONTENTFORMAT_BEGIN
 90
        0
 91
        0
 92
        4
 93
        0
300

 40
0.0
140
1.0
 94
        5
 62
     0
340
54A
144
0.18
309
CONTENTFORMAT_END
171
     1
301
MARGIN
  1
CELLMARGIN_BEGIN
 40
0.06
 40
0.06
 40
0.06
 40
0.06
 40
0.06
 40
0.06
309
CELLMARGIN_END
 94
        6
 95
        1
302
GRIDFORMAT
  1
GRIDFORMAT_BEGIN
 90
        0
 91
        1
 62
     0
 92
       -2
340
54C
 93
        0
 40
0.045
309
GRIDFORMAT_END
 95
        2
302
GRIDFORMAT
  1
GRIDFORMAT_BEGIN
 90
        0
 91
        1
 62
     0
 92
       -2
340
54C
 93
        0
 40
0.045
309
GRIDFORMAT_END
 95
        4
302
GRIDFORMAT
  1
GRIDFORMAT_BEGIN
 90
        0
 91
        1
 62
     0
 92
       -2
340
54C
 93
        0
 40
0.045
309
GRIDFORMAT_END
 95
        8
302
GRIDFORMAT
  1
GRIDFORMAT_BEGIN
 90
        0
 91
        1
 62
     0
 92
       -2
340
54C
 93
        0
 40
0.045
309
GRIDFORMAT_END
 95
       16
302
GRIDFORMAT
  1
GRIDFORMAT_BEGIN
 90
        0
 91
        1
 62
     0
 92
       -2
340
54C
 93
        0
 40
0.045
309
GRIDFORMAT_END
 95
       32
302
GRIDFORMAT
  1
GRIDFORMAT_BEGIN
 90
        0
 91
        1
 62
     0
 92
       -2
340
54C
 93
        0
 40
0.045
309
GRIDFORMAT_END
309
TABLEFORMAT_END
  1
CELLSTYLE_BEGIN
 90
        2
 91
        1
300
_HEADER
309
CELLSTYLE_END
300
CELLSTYLE
  1
TABLEFORMAT_BEGIN
 90
        5
170
     1
 91
        0
 92
        0
 62
   257
 93
        1
300
CONTENTFORMAT
  1
CONTENTFORMAT_BEGIN
 90
        0
 91
        0
 92
        4
 93
        0
300

 40
0.0
140
1.0
 94
        2
 62
     0
340
54A
144
0.18
309
CONTENTFORMAT_END
171
     1
301
MARGIN
  1
CELLMARGIN_BEGIN
 40
0.06
 40
0.06
 40
0.06
 40
0.06
 40
0.06
 40
0.06
309
CELLMARGIN_END
 94
        6
 95
        1
302
GRIDFORMAT
  1
GRIDFORMAT_BEGIN
 90
        0
 91
        1
 62
     0
 92
       -2
340
54C
 93
        0
 40
0.045
309
GRIDFORMAT_END
 95
        2
302
GRIDFORMAT
  1
GRIDFORMAT_BEGIN
 90
        0
 91
        1
 62
     0
 92
       -2
340
54C
 93
        0
 40
0.045
309
GRIDFORMAT_END
 95
        4
302
GRIDFORMAT
  1
GRIDFORMAT_BEGIN
 90
        0
 91
        1
 62
     0
 92
       -2
340
54C
 93
        0
 40
0.045
309
GRIDFORMAT_END
 95
        8
302
GRIDFORMAT
  1
GRIDFORMAT_BEGIN
 90
        0
 91
        1
 62
     0
 92
       -2
340
54C
 93
        0
 40
0.045
309
GRIDFORMAT_END
 95
       16
302
GRIDFORMAT
  1
GRIDFORMAT_BEGIN
 90
        0
 91
        1
 62
     0
 92
       -2
340
54C
 93
        0
 40
0.045
309
GRIDFORMAT_END
 95
       32
302
GRIDFORMAT
  1
GRIDFORMAT_BEGIN
 90
        0
 91
        1
 62
     0
 92
       -2
340
54C
 93
        0
 40
0.045
309
GRIDFORMAT_END
309
TABLEFORMAT_END
  1
CELLSTYLE_BEGIN
 90
        3
 91
        2
300
_DATA
309
CELLSTYLE_END
  0
ENDSEC
  0
EOF
